<?xml version="1.0" encoding="utf-8"?>
<!-- Generator: Adobe Illustrator 24.0.1, SVG Export Plug-In . SVG Version: 6.00 Build 0)  -->
<svg version="1.1" xmlns="http://www.w3.org/2000/svg" xmlns:xlink="http://www.w3.org/1999/xlink" x="0px" y="0px"
	 viewBox="0 0 612 792" style="enable-background:new 0 0 612 792;" xml:space="preserve">
<style type="text/css">
	.st0{fill:none;stroke:#006BAC;stroke-width:2.4409;stroke-linecap:square;stroke-linejoin:round;stroke-miterlimit:10;}
	.st1{fill:#006BAC;}
	.st2{font-family:'ArialMT';}
	.st3{font-size:11.9597px;}
	.st4{font-family:'AdobeSongStd-Light-GBpc-EUC-H';}
	.st5{font-size:3.548px;}
	.st6{opacity:0.63;}
	.st7{fill:none;stroke:#000000;stroke-width:3;stroke-miterlimit:10;}
	.st8{fill:none;stroke:#000000;stroke-width:3;stroke-miterlimit:10;stroke-dasharray:11.7609,1.9601;}
	.st9{fill:none;stroke:#000000;stroke-width:3;stroke-miterlimit:10;stroke-dasharray:10.9056,1.8176;}
	.st10{fill:none;stroke:#000000;stroke-width:3;stroke-miterlimit:10;stroke-dasharray:7.2511,1.2085;}
	.st11{fill:none;stroke:#000000;stroke-width:3;stroke-miterlimit:10;stroke-dasharray:12.1107,2.0185;}
	.st12{fill:none;stroke:#000000;stroke-width:3;stroke-miterlimit:10;stroke-dasharray:11.9654,1.9942;}
	.st13{fill:none;stroke:#000000;stroke-width:3;stroke-linecap:square;stroke-linejoin:round;}
	.st14{fill:none;stroke:#000000;stroke-width:3;stroke-linecap:square;stroke-linejoin:round;stroke-dasharray:11.9701,3.99;}
	.st15{fill:none;stroke:#000000;stroke-width:3;stroke-linecap:square;stroke-linejoin:round;stroke-dasharray:11.5154,3.8385;}
	.st16{clip-path:url(#SVGID_2_);}
</style>
<g id="图层_1">
	<g>
		<polyline class="st0" points="41.64,372.7 41.64,372.5 41.84,372.29 42.05,372.09 42.26,372.09 42.46,371.88 42.67,372.09 
			42.67,372.29 42.88,372.29 42.88,372.5 43.08,372.7 43.08,372.91 43.08,373.12 43.29,372.91 43.29,372.5 43.5,372.29 43.5,372.09 
			43.7,372.09 43.7,372.5 43.7,372.7 43.91,372.91 43.91,372.7 43.91,372.5 44.11,372.29 44.11,372.5 44.11,372.7 44.32,372.91 
			44.32,372.7 44.53,372.5 44.53,372.29 44.73,372.29 44.73,372.5 44.73,372.7 44.94,372.7 44.94,372.91 45.15,372.7 45.35,372.91 
			45.35,373.12 45.35,372.91 45.56,372.91 45.77,373.12 45.97,373.32 45.97,373.12 45.97,372.91 46.18,372.7 46.39,372.91 
			46.39,373.12 46.39,373.32 46.59,373.32 46.59,373.53 46.8,373.53 46.8,373.32 47.01,373.32 47.21,373.32 47.42,373.32 
			47.42,373.12 47.63,373.12 47.63,373.32 47.83,373.32 48.04,373.32 48.04,373.53 48.25,373.74 48.25,373.94 48.45,373.94 
			48.45,373.74 48.45,373.53 48.66,373.32 48.66,373.12 48.66,372.91 48.87,372.91 48.87,373.12 48.87,373.32 49.07,373.53 
			49.28,373.12 49.28,372.91 49.48,373.12 49.69,372.91 49.69,372.7 49.9,372.91 49.9,373.12 50.1,373.12 50.1,372.91 50.31,372.7 
			50.31,372.91 50.52,372.91 50.72,373.12 50.93,373.12 50.93,373.32 51.14,373.32 51.14,373.12 51.14,373.32 51.34,373.32 
			51.34,373.12 51.55,373.12 51.55,373.32 51.55,373.53 51.76,373.74 51.76,373.94 51.76,373.74 51.96,373.53 51.96,373.32 
			52.17,373.12 52.38,373.12 52.38,373.32 52.58,373.53 52.58,373.74 52.79,373.94 53,373.94 53.2,373.94 53.41,373.94 
			53.41,373.74 53.62,373.74 53.62,373.53 53.82,373.32 53.82,373.12 54.03,373.32 54.03,373.53 54.03,373.74 54.23,373.94 
			54.23,374.15 54.44,373.94 54.44,373.74 54.44,373.53 54.65,373.53 54.65,373.74 54.85,373.94 54.85,374.15 54.85,373.94 
			55.06,373.74 55.06,373.53 55.06,373.74 55.27,373.94 55.27,374.15 55.47,374.15 55.47,373.74 55.68,373.74 55.89,373.74 
			55.89,373.94 56.09,373.94 56.3,373.94 56.3,374.15 56.3,373.94 56.51,373.94 56.71,373.94 56.71,374.15 56.92,374.35 
			57.13,374.15 57.13,373.94 57.13,373.74 57.13,373.53 57.33,373.53 57.33,373.74 57.33,373.94 57.54,374.15 57.54,374.35 
			57.75,374.56 57.95,374.56 58.16,374.56 58.37,374.56 58.57,374.56 58.57,374.35 58.57,374.56 58.78,374.56 58.99,374.56 
			59.19,374.35 59.19,374.15 59.19,373.94 59.19,373.74 59.4,373.74 59.4,373.94 59.6,374.15 59.81,374.15 60.02,374.15 
			60.22,374.15 60.22,373.94 60.43,373.94 60.43,374.15 60.64,374.15 60.64,374.35 60.84,374.35 60.84,374.15 61.05,374.15 
			61.05,373.94 61.26,373.94 61.46,373.94 61.67,373.94 61.88,373.74 61.88,373.94 62.08,373.94 62.08,374.35 62.29,374.35 
			62.5,374.15 62.5,373.94 62.5,373.74 62.7,373.53 62.7,373.32 62.91,373.32 62.91,373.53 63.12,373.53 63.12,373.74 63.32,373.74 
			63.32,373.94 63.53,374.15 63.53,374.35 63.74,374.15 63.94,373.94 63.94,373.74 64.15,373.74 64.15,373.53 64.36,373.53 
			64.56,373.74 64.56,374.15 64.56,374.35 64.56,374.56 64.77,374.56 64.77,374.35 64.97,374.15 64.97,373.94 64.97,373.74 
			65.18,373.94 65.18,374.15 65.39,374.15 65.39,373.94 65.59,373.94 65.59,374.15 65.8,374.15 66.01,374.15 66.01,374.35 
			66.01,374.56 66.21,374.77 66.42,374.56 66.63,374.56 66.83,374.56 67.04,374.56 67.04,374.77 67.25,374.77 67.25,374.56 
			67.45,374.35 67.45,374.56 67.66,374.77 67.66,374.97 67.66,375.18 67.87,375.18 67.87,374.97 67.87,374.77 67.87,374.56 
			68.07,374.56 68.28,374.77 68.28,374.97 68.49,375.18 68.49,375.38 68.69,375.38 68.69,375.18 68.9,375.18 69.11,375.18 
			69.11,375.38 69.31,375.38 69.52,375.59 69.72,375.59 69.93,375.38 69.93,375.18 69.93,374.97 70.14,374.97 70.14,375.18 
			70.34,375.38 70.34,375.59 70.34,375.8 70.55,375.8 70.55,375.59 70.55,375.38 70.76,375.18 70.76,375.38 70.96,375.59 
			70.96,375.8 71.17,375.8 71.17,375.59 71.38,375.59 71.38,375.8 71.38,376 71.58,376.21 71.58,376 71.79,375.8 71.79,375.59 
			72,375.59 72.2,375.59 72.2,375.8 72.2,375.59 72.41,375.59 72.62,375.59 72.62,375.8 72.82,375.8 73.03,375.59 73.03,375.38 
			73.24,375.59 73.24,375.8 73.24,376 73.44,376.21 73.44,376 73.65,375.8 73.65,375.59 73.86,375.38 74.06,375.38 74.06,375.59 
			74.27,375.8 74.27,376 74.27,376.21 74.48,376.21 74.48,376.42 74.68,376.42 74.68,376.62 74.89,376.62 74.89,376.42 
			75.09,376.42 75.09,376.21 75.3,376.21 75.3,376 75.3,375.8 75.51,375.8 75.51,376 75.71,376 75.71,376.21 75.71,376.42 
			75.92,376.62 75.92,376.42 76.13,376.21 76.13,376 76.33,376 76.33,376.21 76.33,376.42 76.54,376.42 76.54,376.21 76.75,376.21 
			76.75,376.42 76.95,376.62 77.16,376.62 77.16,376.42 77.37,376.42 77.57,376.42 77.57,376.21 77.78,376.21 77.78,376.42 
			77.99,376.62 77.99,376.42 78.19,376.42 78.19,376.21 78.4,376.21 78.4,376.42 78.4,376.62 78.61,376.83 78.61,377.03 
			78.81,376.83 78.81,376.62 79.02,376.42 79.02,376.21 79.23,376.21 79.43,376.21 79.64,376.42 79.85,376.62 80.05,376.42 
			80.26,376.42 80.46,376.42 80.67,376.42 80.67,376.62 80.67,376.83 80.67,377.03 80.88,377.03 80.88,377.24 81.08,377.24 
			81.08,377.03 81.29,376.83 81.29,376.62 81.29,376.83 81.5,376.83 81.5,377.03 81.5,377.24 81.7,377.24 81.7,377.03 81.91,377.03 
			81.91,377.24 82.12,377.24 82.12,377.03 82.32,376.83 82.32,376.62 82.32,376.83 82.53,377.03 82.53,377.24 82.74,377.24 
			82.94,377.24 83.15,377.24 83.15,377.45 83.36,377.45 83.36,377.24 83.56,377.24 83.56,377.03 83.77,377.24 83.77,377.45 
			83.77,377.65 83.98,377.65 83.98,377.45 83.98,377.03 83.98,376.83 84.18,376.62 84.39,376.83 84.39,377.24 84.39,377.45 
			84.6,377.45 84.6,377.65 84.8,377.65 85.01,377.65 85.01,377.45 85.22,377.45 85.42,377.24 85.63,377.24 85.83,377.24 
			85.83,377.45 86.04,377.65 86.04,377.86 86.25,377.86 86.25,377.65 86.45,377.45 86.45,377.24 86.45,377.03 86.66,376.83 
			86.66,377.03 86.87,377.45 86.87,377.65 87.07,377.65 87.07,377.24 87.07,377.03 87.28,377.03 87.28,377.24 87.28,377.45 
			87.49,377.65 87.49,377.45 87.49,377.24 87.69,376.83 87.9,376.83 87.9,377.03 87.9,377.45 88.11,377.45 88.31,377.45 
			88.31,377.24 88.52,377.45 88.73,377.45 88.93,377.45 88.93,377.65 89.14,377.65 89.14,377.45 89.35,377.24 89.35,377.03 
			89.55,377.24 89.55,377.45 89.55,377.65 89.76,377.65 89.76,377.86 89.97,377.86 89.97,377.65 90.17,377.45 90.17,377.24 
			90.38,377.24 90.58,377.03 90.79,376.83 90.79,377.03 91,377.03 91,377.24 91.2,377.24 91.2,377.45 91.41,377.45 91.41,377.65 
			91.62,377.65 91.62,377.45 91.82,377.24 91.82,377.03 91.82,376.83 92.03,376.83 92.03,377.03 92.03,377.24 92.24,377.45 
			92.24,377.65 92.44,377.45 92.44,377.24 92.65,377.24 92.86,377.45 92.86,377.24 93.06,377.24 93.27,377.24 93.48,377.45 
			93.68,377.65 93.68,377.45 93.89,377.45 93.89,377.65 94.1,377.65 94.3,377.65 94.51,377.65 94.51,377.86 94.72,378.07 
			94.72,377.86 94.72,377.65 94.92,377.45 94.92,377.24 95.13,377.24 95.13,377.45 95.13,377.65 95.34,377.86 95.34,378.07 
			95.54,378.27 95.54,378.07 95.75,378.07 95.75,377.86 95.75,377.65 95.95,377.65 96.16,377.65 96.16,377.45 96.37,377.45 
			96.37,377.24 96.57,377.45 96.78,377.65 96.99,377.86 96.99,378.07 97.19,378.07 97.4,377.86 97.4,377.65 97.4,377.45 
			97.61,377.45 97.61,377.65 97.81,377.86 97.81,378.07 98.02,378.07 98.02,377.86 98.02,377.65 98.23,377.65 98.23,377.86 
			98.23,378.07 98.43,378.07 98.64,378.07 98.85,378.07 99.05,378.07 99.05,377.86 99.05,378.07 99.05,378.27 99.26,378.27 
			99.26,378.07 99.47,378.07 99.47,377.86 99.47,378.07 99.67,378.07 99.88,378.07 99.88,377.86 100.09,377.86 100.09,378.07 
			100.09,378.27 100.29,378.48 100.5,378.48 100.5,378.27 100.71,378.27 100.71,378.07 100.91,377.86 100.91,377.65 101.12,377.65 
			101.32,377.65 101.53,377.65 101.74,377.65 101.94,377.65 102.15,377.86 102.36,378.07 102.36,378.27 102.36,378.48 
			102.36,378.68 102.56,378.68 102.56,378.89 102.77,378.68 102.77,378.48 102.77,378.27 102.98,378.07 102.98,378.27 
			103.18,378.48 103.18,378.68 103.39,378.68 103.39,378.48 103.39,378.27 103.39,378.48 103.6,378.48 103.6,378.68 103.8,378.68 
			103.8,378.27 103.8,378.07 104.01,378.07 104.01,378.27 104.22,378.68 104.42,378.68 104.63,378.68 104.63,378.89 104.84,378.89 
			105.04,378.68 105.04,378.89 105.25,379.1 105.46,379.1 105.46,378.89 105.46,378.68 105.66,378.48 105.66,378.68 105.66,378.89 
			105.87,379.1 105.87,379.3 106.07,379.51 106.07,379.3 106.28,379.3 106.28,379.1 106.49,379.1 106.49,378.89 106.69,378.89 
			106.9,379.1 107.11,378.89 107.31,378.89 107.31,379.1 107.31,378.89 107.52,378.89 107.73,379.1 107.73,379.3 107.93,379.51 
			107.93,379.72 107.93,379.92 108.14,379.92 108.14,380.13 108.14,379.92 108.35,379.92 108.35,379.51 108.35,379.3 108.55,379.3 
			108.55,379.72 108.76,379.92 108.76,379.72 108.97,379.72 108.97,379.51 108.97,379.72 109.17,379.72 109.17,380.13 
			109.17,380.33 109.38,380.54 109.38,380.33 109.59,380.13 109.59,379.92 109.59,380.13 109.79,380.13 110,380.33 110,380.13 
			110.21,380.13 110.21,380.33 110.41,380.33 110.41,380.13 110.62,380.13 110.62,379.92 110.83,380.13 110.83,380.33 
			110.83,380.54 110.83,380.75 111.03,380.75 111.03,380.54 111.24,380.33 111.24,380.13 111.44,379.92 111.65,379.92 
			111.86,380.13 111.86,380.33 111.86,380.54 112.06,380.54 112.27,380.54 112.48,380.54 112.68,380.54 112.68,380.33 
			112.89,380.33 112.89,380.13 113.1,379.92 113.3,379.92 113.3,380.13 113.3,380.33 113.51,380.54 113.72,380.54 113.72,380.33 
			113.72,380.13 113.92,380.13 113.92,380.33 114.13,380.54 114.13,380.33 114.34,380.33 114.34,380.13 114.54,380.33 
			114.54,380.54 114.75,380.75 114.75,380.54 114.96,380.54 114.96,380.33 115.16,380.33 115.37,380.33 115.37,380.54 
			115.37,380.33 115.58,380.33 115.78,380.13 115.78,380.33 115.99,380.33 		"/>
		<polyline class="st0" points="115.99,380.33 116.2,380.13 116.2,379.92 116.4,380.13 116.4,380.33 116.4,380.54 116.61,380.54 
			116.61,380.33 116.81,380.33 116.81,380.13 116.81,379.92 117.02,379.92 117.02,379.72 117.23,379.72 117.23,379.92 
			117.43,380.13 117.43,380.33 117.43,380.54 117.64,380.54 117.85,380.54 117.85,380.33 118.05,380.54 118.05,380.33 
			118.26,380.33 118.47,380.13 118.47,379.92 118.47,379.72 118.67,379.51 118.88,379.72 118.88,380.13 118.88,380.33 
			119.09,380.54 119.29,380.33 119.29,380.13 119.29,379.92 119.5,379.92 119.5,380.13 119.5,380.33 119.5,380.54 119.71,380.33 
			119.71,380.13 119.91,380.13 119.91,380.33 119.91,380.54 120.12,380.54 120.33,380.54 120.33,380.33 120.53,380.33 
			120.53,380.54 120.74,380.54 120.74,380.33 120.95,380.54 121.15,380.54 121.15,380.33 121.36,380.33 121.57,380.33 
			121.57,380.75 121.57,380.95 121.77,380.95 121.77,380.75 121.77,380.54 121.98,380.33 121.98,380.13 122.18,380.13 
			122.39,380.33 122.39,380.54 122.6,380.75 122.6,380.95 122.8,380.95 123.01,380.95 123.01,381.16 123.22,381.16 123.42,381.16 
			123.63,380.95 123.63,380.75 123.84,380.54 123.84,380.33 123.84,380.13 124.04,380.13 124.04,380.33 124.25,380.54 
			124.25,380.75 124.25,380.95 124.46,381.16 124.46,380.95 124.46,380.75 124.66,380.54 124.66,380.33 124.87,380.33 
			124.87,380.54 124.87,380.75 125.08,380.54 125.08,380.33 125.28,380.54 125.28,380.75 125.49,380.95 125.7,380.75 125.9,380.54 
			126.11,380.54 126.11,380.75 126.32,380.54 126.52,380.33 126.52,380.54 126.73,380.54 126.93,380.54 126.93,380.33 
			126.93,380.13 127.14,380.13 127.14,380.33 127.14,380.54 127.35,380.75 127.35,380.95 127.35,380.75 127.55,380.75 
			127.55,380.54 127.76,380.33 127.76,380.13 127.97,379.92 128.17,380.13 128.17,380.33 128.38,380.33 128.38,380.54 
			128.59,380.54 128.59,380.75 128.79,380.54 129,380.33 129.21,380.13 129.21,379.92 129.41,379.72 129.41,379.92 129.62,380.13 
			129.62,380.33 129.62,380.54 129.83,380.75 129.83,380.54 130.03,380.33 130.03,380.13 130.24,380.13 130.24,380.33 
			130.24,380.54 130.45,380.54 130.45,380.33 130.65,380.13 130.65,380.33 130.86,380.54 130.86,380.75 131.07,380.75 
			131.07,380.54 131.27,380.54 131.27,380.33 131.48,380.54 131.69,380.54 131.89,380.54 131.89,380.75 132.1,380.54 132.3,380.33 
			132.3,380.54 132.3,380.75 132.51,380.95 132.51,381.16 132.72,381.16 132.72,380.95 132.72,380.75 132.92,380.75 132.92,380.54 
			132.92,380.33 133.13,380.33 133.13,380.13 133.34,380.13 133.54,380.13 133.54,380.33 133.75,380.33 133.75,380.13 
			133.75,380.33 133.96,380.13 134.16,380.13 134.37,380.13 134.37,380.33 134.58,380.33 134.58,380.54 134.78,380.75 
			134.78,381.16 134.99,381.16 134.99,380.95 135.2,380.54 135.2,380.33 135.4,380.54 135.4,380.75 135.4,380.95 135.61,380.95 
			135.61,380.75 135.82,380.75 136.02,380.75 136.23,380.54 136.23,380.33 136.44,380.33 136.44,380.54 136.64,380.54 
			136.64,380.75 136.85,380.95 136.85,380.75 137.06,380.75 137.26,380.95 137.47,380.75 137.67,380.54 137.67,380.75 
			137.67,380.95 137.67,381.16 137.88,380.95 137.88,380.54 138.09,380.33 138.09,380.13 138.29,380.33 138.29,380.54 138.5,380.75 
			138.5,380.95 138.71,381.16 138.91,381.16 139.12,381.16 139.33,381.16 139.53,381.16 139.74,381.16 139.95,381.16 140.15,380.95 
			140.15,380.75 140.36,380.54 140.36,380.33 140.57,380.54 140.57,380.75 140.57,380.95 140.77,381.16 140.77,380.95 
			140.98,380.75 140.98,380.54 141.19,380.75 141.19,380.95 141.39,380.75 141.39,380.54 141.6,380.54 141.6,380.75 141.81,380.95 
			141.81,380.75 142.01,380.75 142.01,380.54 142.22,380.75 142.42,380.54 142.42,380.75 142.63,380.75 142.63,380.95 
			142.84,380.75 143.04,380.75 143.04,380.95 143.04,381.16 143.25,381.36 143.25,381.57 143.46,381.36 143.46,381.16 
			143.66,380.95 143.66,380.75 143.87,380.75 144.08,380.95 144.08,381.16 144.28,381.16 144.28,381.36 144.49,381.36 
			144.49,381.57 144.7,381.57 144.9,381.36 145.11,381.36 145.11,381.16 145.11,380.95 145.32,380.95 145.32,380.75 145.52,380.95 
			145.52,381.16 145.52,381.36 145.73,381.57 145.73,381.78 145.94,381.78 145.94,381.57 145.94,381.36 146.14,381.16 
			146.35,381.36 146.35,381.57 146.56,381.36 146.76,381.36 146.76,381.57 146.97,381.36 146.97,381.16 146.97,380.95 
			147.18,380.95 147.18,381.16 147.38,381.36 147.38,381.57 147.38,381.36 147.59,381.36 147.79,381.36 148,381.36 148,381.57 
			148.21,381.36 148.41,381.16 148.41,381.36 148.62,381.57 148.62,381.78 148.62,381.57 148.62,381.36 148.83,381.16 
			148.83,380.95 149.03,380.95 149.03,381.16 149.24,381.36 149.24,381.57 149.45,381.78 149.45,381.98 149.65,381.98 
			149.65,381.78 149.86,381.78 149.86,381.57 150.07,381.57 150.27,381.57 150.48,381.57 150.69,381.78 150.89,381.78 
			150.89,381.57 150.89,381.36 151.1,381.16 151.1,380.95 151.1,380.75 151.31,380.75 151.31,380.95 151.51,381.16 151.51,381.36 
			151.72,381.36 151.72,381.16 151.72,380.95 151.72,380.75 151.93,380.95 151.93,381.16 152.13,381.16 152.13,380.95 
			152.34,380.75 152.34,380.95 152.55,380.95 152.55,381.16 152.75,380.95 152.75,380.75 152.96,380.75 152.96,380.95 
			153.16,380.75 153.37,380.75 153.58,380.75 153.58,380.54 153.78,380.54 153.99,380.54 153.99,380.95 153.99,381.16 154.2,380.95 
			154.2,380.75 154.4,380.54 154.4,380.33 154.61,380.33 154.61,380.13 154.82,380.33 155.02,380.54 155.02,380.75 155.23,380.75 
			155.23,380.95 155.44,380.95 155.64,380.95 155.64,380.75 155.85,380.75 155.85,380.54 156.06,380.54 156.06,380.33 
			156.26,380.54 156.26,380.75 156.47,380.95 156.47,381.16 156.68,381.36 156.68,381.16 156.88,380.75 156.88,380.54 
			157.09,380.54 157.09,380.75 157.09,380.95 157.3,380.95 157.3,380.75 157.5,380.75 157.5,380.95 157.71,380.95 157.71,380.75 
			157.91,380.54 158.12,380.75 158.12,380.95 158.12,381.16 158.12,380.95 158.33,380.95 158.53,380.75 158.53,380.95 
			158.74,380.95 158.95,380.95 158.95,380.75 159.15,380.75 159.36,380.95 159.36,380.75 159.57,380.54 159.57,380.33 
			159.77,380.33 159.77,380.54 159.98,380.75 159.98,380.95 160.19,380.95 160.39,380.95 160.39,380.75 160.39,380.54 160.6,380.54 
			160.81,380.54 160.81,380.33 161.01,380.33 161.22,380.33 161.43,380.54 161.63,380.75 161.84,380.75 161.84,380.54 
			162.05,380.33 162.05,380.13 162.05,379.92 162.25,379.92 162.25,380.13 162.46,380.54 162.46,380.33 162.67,380.13 
			162.87,380.33 163.08,380.33 163.08,380.13 163.08,379.92 163.28,379.92 163.49,379.92 163.49,380.13 163.7,380.13 163.7,380.33 
			163.9,380.33 163.9,380.13 164.11,380.13 164.11,380.33 164.32,380.33 164.32,380.13 164.52,380.13 164.73,380.33 164.73,380.54 
			164.94,380.33 164.94,380.13 164.94,379.92 165.14,379.72 165.35,379.72 165.35,379.92 165.56,380.13 165.56,380.33 
			165.76,380.33 165.76,380.54 165.97,380.54 166.18,380.54 166.38,380.54 166.59,380.54 166.8,380.33 166.8,380.13 167,379.92 
			167,379.72 167.21,379.72 167.21,379.92 167.42,380.13 167.42,380.54 167.62,380.54 167.62,380.33 167.62,380.13 167.83,379.92 
			167.83,379.72 167.83,379.92 167.83,380.13 168.04,380.33 168.04,380.13 168.24,380.13 168.24,379.92 168.24,380.13 
			168.45,380.13 168.65,380.13 168.86,379.92 168.86,380.13 168.86,380.33 169.07,380.13 169.27,379.92 169.27,380.13 
			169.48,380.13 169.69,379.92 169.89,380.13 169.89,380.33 170.1,380.33 170.1,379.92 170.1,379.72 170.31,379.51 170.31,379.72 
			170.51,379.92 170.51,380.13 170.51,380.33 170.72,380.33 170.93,380.13 170.93,379.92 171.13,379.92 171.13,379.72 
			171.13,379.51 171.34,379.51 171.55,379.51 171.75,379.51 171.96,379.51 172.17,379.51 172.17,379.3 172.37,379.3 172.37,379.51 
			172.58,379.72 172.58,379.92 172.58,380.13 172.79,380.13 172.79,380.33 172.79,380.13 172.99,380.13 172.99,379.92 
			172.99,379.72 173.2,379.51 173.2,379.72 173.41,379.92 173.61,379.72 173.82,379.72 174.02,379.51 174.02,379.3 174.02,378.89 
			174.23,378.48 174.23,378.27 174.23,378.07 174.44,377.86 174.44,377.65 174.44,377.45 174.44,377.03 174.64,376.83 
			174.64,376.62 174.64,376.42 174.85,376.21 174.85,375.8 174.85,375.59 175.06,375.38 175.06,375.18 175.06,374.97 175.26,374.77 
			175.26,374.56 175.26,374.35 175.47,374.15 175.47,373.74 175.47,373.32 175.47,372.91 175.68,372.7 175.68,372.5 175.68,372.29 
			175.88,372.29 175.88,372.09 176.09,372.09 176.09,371.88 176.09,371.47 176.3,371.26 176.3,370.85 176.3,370.64 176.5,370.23 
			176.5,370.02 176.5,369.61 176.5,369.4 176.71,368.99 176.71,368.79 176.71,368.37 176.92,368.17 176.92,367.96 176.92,367.76 
			177.12,367.55 177.12,367.34 177.12,367.14 177.33,366.93 177.33,366.72 177.33,366.52 177.54,366.31 177.54,366.11 177.54,365.9 
			177.54,365.69 177.74,365.28 177.74,364.87 177.74,364.46 177.95,364.04 177.95,363.43 177.95,363.01 178.16,362.81 
			178.16,362.39 178.36,362.39 178.36,362.19 178.36,361.98 178.57,361.57 178.57,361.16 178.57,360.54 178.57,360.13 
			178.77,359.92 178.77,359.71 178.77,359.51 178.98,359.09 178.98,358.68 178.98,358.27 179.19,357.86 179.19,357.65 
			179.19,357.24 179.39,357.03 179.39,356.83 179.39,356.62 179.6,356 179.6,355.59 179.6,355.18 179.81,354.56 179.81,353.94 
			179.81,353.53 179.81,352.91 180.01,352.5 180.01,351.88 180.01,351.47 180.22,350.85 180.22,350.23 180.22,348.99 180.43,347.34 
			180.43,346.1 180.43,348.17 180.63,353.94 180.63,354.35 180.63,341.57 180.84,313.11 180.84,270.84 180.84,221.15 180.84,172.48 
			181.05,133.72 181.05,111.65 181.05,109.18 181.25,122.79 181.25,143.82 181.25,163.62 181.46,180.52 181.46,197.64 
			181.46,214.14 181.67,229.6 181.67,244.24 181.67,258.26 181.87,271.67 181.87,284.24 181.87,296.2 181.87,307.34 182.08,317.24 
			182.08,325.69 182.08,332.91 182.29,338.89 182.29,343.63 182.29,347.55 182.49,350.64 182.49,353.32 182.49,355.59 182.7,357.45 
			182.7,358.89 182.7,360.13 182.91,361.16 182.91,361.78 182.91,362.39 182.91,362.81 183.11,363.22 183.11,363.63 183.11,364.04 
			183.32,364.25 183.32,364.66 183.32,364.87 183.53,365.28 183.53,365.49 183.53,365.69 183.73,365.9 183.73,365.69 183.94,365.49 
			183.94,365.28 183.94,365.07 183.94,365.28 184.14,365.49 184.14,365.69 184.35,365.49 184.35,365.28 184.56,365.07 
			184.56,365.28 184.76,365.28 184.76,365.49 184.97,365.28 184.97,365.07 185.18,365.07 185.18,364.87 185.38,364.66 
			185.59,364.66 		"/>
		<polyline class="st0" points="203.97,363.84 204.18,363.84 204.18,363.63 204.39,363.63 204.39,363.43 204.59,363.43 
			204.8,363.43 204.8,363.63 205,363.84 205,364.04 205.21,364.04 205.21,363.63 205.42,363.43 205.42,363.01 205.62,363.01 
			205.62,363.22 205.62,363.43 205.83,363.43 205.83,363.22 205.83,363.01 206.04,362.81 206.04,363.01 206.24,363.01 
			206.24,362.81 206.45,362.6 206.45,362.39 206.66,362.6 206.66,362.39 206.86,362.39 206.86,362.19 207.07,362.19 207.28,361.98 
			207.48,361.78 207.48,361.98 207.69,361.98 207.69,361.78 207.69,361.36 207.9,361.16 207.9,360.95 208.1,360.95 208.1,361.16 
			208.1,361.36 208.31,361.36 208.52,361.16 208.52,360.95 208.72,360.95 208.72,360.74 208.72,360.54 208.72,360.33 208.93,360.13 
			208.93,359.92 209.14,359.92 209.14,359.71 209.34,359.51 209.34,359.3 209.55,359.3 209.76,359.3 209.76,359.09 209.96,359.09 
			210.17,359.3 210.37,359.3 210.37,359.09 210.37,358.89 210.58,358.68 210.58,358.27 210.58,358.06 210.79,357.86 210.79,358.06 
			210.99,358.27 210.99,358.06 210.99,357.86 211.2,357.65 211.2,357.45 211.41,357.45 211.41,357.24 211.61,357.03 211.61,356.83 
			211.61,356.62 211.82,356.62 211.82,356.41 212.03,356.62 212.03,356.41 212.03,356.21 212.23,356.21 212.23,356 212.23,355.8 
			212.44,355.8 212.44,355.59 212.65,355.38 212.65,355.18 212.85,355.18 212.85,354.97 213.06,354.76 213.06,354.56 213.06,354.35 
			213.06,354.15 213.27,353.94 213.47,353.94 213.68,353.94 213.68,353.73 213.68,353.32 213.89,353.12 213.89,352.7 213.89,352.5 
			214.09,352.08 214.09,351.88 214.3,351.88 214.3,351.67 214.51,351.67 214.51,351.47 214.71,351.47 214.92,351.26 214.92,351.05 
			214.92,350.85 215.12,350.64 215.12,350.43 215.33,350.23 215.33,350.02 215.33,349.61 215.33,349.2 215.54,348.99 215.54,348.78 
			215.54,348.58 215.74,348.58 215.74,348.78 215.95,348.78 215.95,348.58 216.16,348.17 216.16,347.75 216.16,347.34 
			216.36,347.14 216.36,346.93 216.57,346.72 216.57,346.52 216.57,346.31 216.78,346.1 216.78,345.9 216.78,345.69 216.98,345.69 
			216.98,345.49 216.98,345.28 217.19,344.87 217.19,344.45 217.19,344.25 217.4,343.84 217.4,343.63 217.4,343.42 217.6,343.22 
			217.6,343.01 217.6,342.81 217.81,342.39 217.81,341.98 217.81,341.77 218.02,341.57 218.02,341.16 218.02,340.74 218.22,340.54 
			218.22,340.33 218.22,339.92 218.43,339.71 218.43,339.51 218.43,339.09 218.43,338.89 218.64,338.47 218.64,337.86 
			218.64,337.24 218.84,336.62 218.84,335.79 218.84,334.56 219.05,333.94 219.05,333.32 219.05,335.18 219.26,337.44 
			219.26,333.73 219.26,319.09 219.46,292.29 219.46,255.79 219.46,214.75 219.46,176.19 219.67,146.5 219.67,130.21 219.67,127.94 
			219.88,136.81 219.88,151.04 219.88,164.44 220.08,176.81 220.08,189.6 220.08,202.38 220.29,214.96 220.29,226.71 220.29,238.05 
			220.49,248.78 220.49,259.09 220.49,268.78 220.7,278.26 220.7,287.13 220.7,295.58 220.7,303.42 220.91,310.84 220.91,317.24 
			220.91,323.01 221.11,327.96 221.11,332.08 221.11,335.59 221.32,338.89 221.32,341.77 221.32,344.25 221.53,346.72 
			221.53,348.78 221.53,350.85 221.73,352.29 221.73,353.53 221.73,354.56 221.73,355.38 221.94,356 221.94,356.83 221.94,357.45 
			222.15,358.27 222.15,358.68 222.15,359.09 222.35,359.51 222.35,359.71 222.56,360.13 222.56,360.54 222.56,360.74 
			222.77,361.16 222.77,361.57 222.77,361.78 222.97,361.98 222.97,362.19 223.18,362.19 223.18,362.39 223.18,362.6 223.39,362.6 
			223.39,362.81 223.59,363.01 223.59,363.22 223.8,363.22 223.8,363.43 224.01,363.43 224.01,363.63 224.21,363.84 224.21,364.04 
			224.21,364.25 224.42,364.25 224.42,364.04 224.63,363.84 224.83,363.84 224.83,364.04 224.83,364.25 224.83,364.46 
			225.04,364.66 225.04,364.87 225.04,365.07 225.25,365.07 225.25,365.28 225.45,365.28 225.45,365.49 225.66,365.49 
			225.66,365.28 225.86,365.28 226.07,365.49 226.07,365.69 226.28,365.69 226.28,365.49 226.48,365.49 226.48,365.28 
			226.48,365.07 226.69,364.87 226.69,364.66 226.9,364.87 226.9,365.07 226.9,365.28 227.1,365.49 227.1,365.69 227.1,365.49 
			227.1,365.28 227.31,365.07 227.52,365.28 227.52,365.49 227.72,365.28 227.72,365.07 227.93,365.07 227.93,365.28 228.14,365.28 
			228.14,365.49 228.14,365.28 228.34,365.07 228.55,365.28 228.55,365.07 228.76,365.07 228.76,365.28 228.96,365.28 
			229.17,365.07 229.17,364.87 229.38,364.87 229.38,365.07 229.38,365.28 229.58,365.28 229.79,365.07 229.79,364.87 
			229.79,364.66 230,364.66 230,364.46 230.2,364.46 230.41,364.66 230.61,364.87 230.82,364.87 231.03,364.87 231.03,364.66 
			231.23,364.66 231.44,364.46 231.44,364.25 231.44,364.04 231.44,363.84 231.65,363.63 231.65,363.43 231.85,363.43 
			232.06,363.63 232.06,363.84 232.06,364.04 232.27,364.04 232.27,363.63 232.47,363.43 232.47,363.22 232.47,363.43 
			232.68,363.43 232.89,363.22 232.89,363.01 233.09,363.01 233.09,363.22 233.3,363.01 233.3,362.81 233.3,362.6 233.51,362.39 
			233.51,362.6 233.71,362.6 233.71,362.39 233.92,362.39 233.92,362.19 234.13,361.98 234.33,361.98 234.33,361.78 234.54,361.57 
			234.54,361.36 234.75,361.36 234.75,361.57 234.95,361.57 234.95,361.36 234.95,361.16 235.16,360.74 235.16,360.54 
			235.16,360.33 235.37,360.33 235.37,360.54 235.57,360.74 235.78,360.95 235.78,360.74 235.78,360.54 235.98,360.54 
			235.98,360.33 235.98,360.13 236.19,359.92 236.19,359.71 236.4,359.71 236.4,359.51 236.6,359.3 236.6,359.09 236.81,359.09 
			236.81,358.89 237.02,358.89 237.22,358.89 237.43,358.89 237.43,358.48 237.43,358.27 237.64,357.86 237.64,357.65 
			237.84,357.65 237.84,357.86 237.84,358.06 238.05,357.86 238.05,357.45 238.05,357.24 238.26,357.03 238.46,357.24 
			238.46,357.03 238.46,356.83 238.67,356.62 238.67,356.41 238.67,356 238.88,355.8 238.88,356 239.08,355.8 239.08,355.59 
			239.29,355.59 239.29,355.38 239.5,355.18 239.5,355.38 239.7,355.18 239.7,354.97 239.7,354.76 239.91,354.56 239.91,354.35 
			240.12,354.35 240.32,354.15 240.32,353.94 240.32,353.73 240.53,353.53 240.53,353.32 240.53,353.12 240.74,353.12 
			240.94,353.12 241.15,353.12 241.15,352.91 241.15,352.7 241.35,352.7 241.35,352.5 241.56,352.29 241.56,352.08 241.77,351.88 
			241.77,351.67 241.97,351.67 241.97,351.47 242.18,351.47 242.18,351.26 242.18,351.05 242.39,350.85 242.39,350.64 
			242.39,350.43 242.59,350.02 242.59,349.82 242.59,349.61 242.8,349.4 242.8,349.61 243.01,349.61 243.01,349.82 243.21,349.4 
			243.21,349.2 243.21,348.58 243.21,348.37 243.42,348.17 243.42,348.37 243.63,348.17 243.63,347.96 243.63,347.75 243.83,347.55 
			243.83,347.34 244.04,347.34 244.04,347.14 244.04,346.93 244.25,346.72 244.25,346.52 244.25,346.31 244.25,346.1 244.45,346.31 
			244.45,346.1 244.66,345.9 244.66,345.69 244.66,345.49 244.87,345.28 244.87,345.07 244.87,344.87 245.07,344.66 245.07,344.45 
			245.28,344.04 245.28,343.63 245.28,343.42 245.28,343.22 245.49,343.01 245.69,342.81 245.69,342.6 245.69,341.98 245.9,341.57 
			245.9,340.95 245.9,340.54 246.1,340.33 246.1,339.92 246.1,339.71 246.31,339.71 246.31,339.51 246.31,339.3 246.52,339.09 
			246.52,338.89 246.52,338.68 		"/>
		<polyline class="st0" points="185.59,364.66 185.59,364.46 185.8,364.46 185.8,364.25 186,364.25 186.21,364.25 186.21,363.84 
			186.21,363.63 186.42,363.43 186.42,363.63 186.62,363.63 186.62,363.84 186.83,363.84 187.04,363.63 187.04,363.43 
			187.24,363.43 187.24,363.22 187.24,363.01 187.45,362.81 187.45,362.6 187.66,362.39 187.66,362.19 187.86,362.19 187.86,361.98 
			188.07,361.98 188.07,361.78 188.28,361.78 188.48,361.57 188.48,361.36 188.48,361.16 188.69,360.95 188.69,360.54 
			188.69,360.33 188.9,360.13 188.9,359.92 189.1,359.92 189.1,360.13 189.31,360.13 189.31,359.92 189.31,359.51 189.51,359.3 
			189.51,359.09 189.72,359.09 189.72,358.89 189.93,358.68 189.93,358.48 190.13,358.48 190.34,358.48 190.34,358.06 
			190.55,357.86 190.55,357.65 190.55,357.45 190.55,357.24 190.75,357.03 190.75,356.83 190.96,356.62 190.96,356.41 
			191.17,356.41 191.17,356 191.37,355.8 191.58,355.59 191.58,355.38 191.79,355.18 191.79,354.56 191.79,354.35 191.99,353.94 
			192.2,353.94 192.41,353.94 192.41,353.73 192.41,353.53 192.61,353.32 192.61,352.91 192.61,352.7 192.61,352.5 192.82,352.29 
			192.82,352.08 192.82,351.88 193.03,351.67 193.03,351.47 193.03,351.26 193.23,351.05 193.23,350.64 193.23,350.43 
			193.44,350.23 193.44,350.02 193.44,349.82 193.65,349.4 193.65,349.2 193.65,348.99 193.65,348.78 193.85,348.58 193.85,348.37 
			194.06,348.17 194.06,347.96 194.06,347.55 194.26,347.14 194.26,346.72 194.26,346.31 194.47,345.9 194.47,345.49 194.47,345.28 
			194.68,345.07 194.68,344.87 194.88,344.45 194.88,344.04 194.88,343.42 194.88,343.01 195.09,342.6 195.09,342.19 195.09,341.77 
			195.3,341.36 195.3,340.95 195.3,340.33 195.5,339.71 195.5,339.3 195.5,338.68 195.71,337.65 195.71,337.03 195.71,337.24 
			195.92,340.12 195.92,340.33 195.92,331.46 195.92,310.02 196.12,276.41 196.12,235.17 196.12,192.69 196.33,156.4 196.33,132.27 
			196.33,123.41 196.54,128.15 196.54,141.96 196.54,158.05 196.74,172.07 196.74,186.09 196.74,200.32 196.95,213.93 
			196.95,226.71 196.95,238.88 196.95,250.22 197.16,260.94 197.16,271.25 197.16,281.36 197.36,290.84 197.36,299.71 
			197.36,307.75 197.57,314.76 197.57,321.15 197.57,326.93 197.78,331.88 197.78,336.21 197.78,339.92 197.98,343.22 197.98,346.1 
			197.98,348.37 197.98,350.43 198.19,352.08 198.19,353.73 198.19,355.18 198.4,356.41 198.4,357.45 198.4,358.27 198.6,359.09 
			198.6,359.71 198.6,360.13 198.81,360.54 198.81,360.74 198.81,361.16 199.02,361.57 199.02,361.78 199.02,361.98 199.02,362.19 
			199.22,362.19 199.22,362.39 199.43,362.39 199.43,362.6 199.63,363.01 199.63,363.22 199.63,363.43 199.84,363.84 199.84,364.04 
			199.84,364.25 200.05,364.25 200.05,364.04 200.05,363.84 200.25,363.63 200.25,363.84 200.25,364.04 200.25,364.25 
			200.46,364.46 200.67,364.46 200.67,364.25 200.87,364.46 201.08,364.66 201.29,364.66 201.49,364.66 201.7,364.66 201.91,364.66 
			202.11,364.66 202.32,364.66 202.32,364.87 202.53,364.87 202.53,364.66 202.53,364.25 202.73,364.25 202.73,364.46 
			202.94,364.87 202.94,365.07 203.15,365.07 203.15,364.87 203.35,364.66 203.35,364.46 203.56,364.46 203.56,364.25 
			203.56,364.04 203.77,364.04 203.77,363.84 203.97,363.84 		"/>
		<polyline class="st0" points="246.52,338.68 246.52,338.27 246.72,338.06 246.72,337.65 246.72,337.03 246.93,336.62 246.93,336 
			246.93,335.38 247.14,334.76 247.14,333.94 247.14,332.91 247.34,331.67 247.34,330.64 247.34,330.43 247.55,332.7 247.55,333.73 
			247.55,326.93 247.55,308.78 247.76,278.88 247.76,241.15 247.76,201.14 247.96,165.47 247.96,140.11 247.96,128.36 
			248.17,130.21 248.17,141.35 248.17,155.57 248.38,168.56 248.38,181.35 248.38,194.34 248.58,207.12 248.58,219.5 248.58,231.04 
			248.58,242.18 248.79,252.7 248.79,262.59 248.79,272.08 249,281.15 249,289.61 249,297.44 249.2,304.66 249.2,311.26 
			249.2,317.03 249.41,322.39 249.41,326.93 249.41,331.05 249.62,334.56 249.62,337.86 249.62,340.74 249.62,343.42 249.82,345.49 
			249.82,347.55 249.82,349.2 250.03,350.64 250.03,352.08 250.03,353.32 250.24,354.15 250.24,354.97 250.24,355.59 250.44,356.41 
			250.44,357.03 250.44,357.45 250.65,357.86 250.65,358.27 250.65,358.48 250.65,358.89 250.86,359.3 250.86,359.51 250.86,359.92 
			251.06,360.33 251.06,360.54 251.27,360.54 251.47,360.54 251.47,360.74 251.47,360.95 251.68,361.36 251.68,361.78 
			251.68,361.98 251.89,362.19 251.89,362.39 251.89,362.6 252.09,362.6 252.09,362.81 252.3,363.01 252.51,363.22 252.71,363.43 
			252.92,363.63 253.13,363.63 253.33,363.43 253.33,363.22 253.33,363.01 253.54,362.81 253.54,363.01 253.75,363.22 
			253.75,363.43 253.75,363.63 253.95,363.84 253.95,363.63 253.95,363.43 253.95,363.22 254.16,363.01 254.16,363.22 
			254.37,363.43 254.37,363.63 254.57,363.43 254.57,363.22 254.78,363.22 254.78,363.43 254.78,363.63 254.99,363.63 
			254.99,363.84 254.99,363.63 255.19,363.63 255.19,363.43 255.4,363.43 255.61,363.43 255.81,363.43 256.02,363.22 256.02,363.43 
			256.23,363.43 256.23,363.63 256.43,363.63 256.43,363.43 256.43,363.01 256.64,362.81 256.64,362.6 256.84,362.81 256.84,363.01 
			256.84,363.22 257.05,363.43 257.26,363.43 257.26,363.22 257.26,363.01 257.46,363.01 257.46,362.81 257.67,362.6 257.88,362.39 
			258.08,362.19 258.08,361.98 258.29,361.98 258.29,361.78 258.29,361.98 258.5,361.98 258.5,361.78 258.7,361.98 258.7,362.19 
			258.91,362.39 259.12,362.39 259.12,362.19 259.12,361.78 259.32,361.57 259.32,361.36 259.32,361.16 259.32,361.36 
			259.53,361.36 259.53,361.57 259.74,361.36 259.74,361.16 259.74,360.95 259.94,360.95 260.15,360.95 260.36,360.54 
			260.36,360.33 260.56,360.33 260.56,360.54 260.77,360.33 260.98,360.33 260.98,360.13 260.98,359.92 261.18,360.13 
			261.18,359.92 261.39,359.92 261.39,359.71 261.39,359.51 261.6,359.51 261.8,359.71 262.01,359.51 262.01,359.09 262.01,358.89 
			262.21,358.68 262.21,358.48 262.21,358.27 262.42,358.48 262.63,358.68 262.83,358.68 263.04,358.48 263.25,358.27 
			263.45,358.27 263.66,358.06 263.66,357.86 263.66,357.65 263.87,357.45 263.87,357.24 264.07,357.03 264.07,356.83 
			264.28,356.83 264.28,357.03 264.49,357.24 264.49,357.45 264.69,357.45 264.69,357.24 264.69,356.83 264.69,356.62 264.9,356.62 
			264.9,356.83 265.11,357.03 265.11,356.83 265.31,356.62 265.31,356.41 265.52,356.41 265.52,356.21 265.73,356 265.73,355.59 
			265.73,355.38 265.73,355.59 265.93,355.59 265.93,355.8 265.93,356 266.14,356 266.14,355.8 266.35,355.59 266.35,355.38 
			266.55,355.38 266.55,355.18 266.76,355.18 266.76,354.76 266.96,354.56 266.96,354.35 267.17,354.56 267.17,354.76 
			267.38,354.56 267.38,354.35 267.38,354.15 267.58,353.73 267.58,353.53 267.79,353.32 267.79,353.53 268,353.53 268,353.73 
			268.2,353.73 268.2,353.53 268.41,353.32 268.41,353.12 268.62,352.91 268.82,352.7 268.82,352.5 269.03,352.29 269.03,352.08 
			269.24,352.08 269.44,351.88 269.44,351.67 269.65,351.47 269.65,351.05 269.65,350.85 269.86,350.43 269.86,350.23 
			269.86,350.02 270.06,349.82 270.06,350.02 270.06,350.23 270.27,350.23 270.27,350.02 270.27,349.82 270.48,349.4 270.48,349.2 
			270.68,349.2 270.89,348.99 270.89,348.78 270.89,348.58 271.1,348.37 271.1,348.17 271.3,348.17 271.3,347.96 271.3,347.75 
			271.51,347.55 271.51,347.34 271.72,347.34 271.72,347.14 271.92,346.72 271.92,346.52 272.13,346.52 272.13,346.31 272.33,346.1 
			272.33,345.9 272.33,345.69 272.33,345.28 272.54,345.07 272.54,344.87 272.75,344.87 272.75,345.07 272.75,344.87 272.95,344.66 
			272.95,344.45 272.95,344.04 273.16,343.84 273.16,343.63 273.16,343.22 273.37,343.01 273.37,342.6 273.37,342.39 273.37,341.98 
			273.57,341.77 273.57,341.57 273.57,341.16 273.78,341.16 273.78,340.74 273.78,340.54 273.99,340.33 273.99,339.92 
			273.99,339.71 274.19,339.51 274.19,339.3 274.19,339.09 274.4,338.89 274.4,338.68 274.4,338.47 274.61,338.27 274.61,338.06 
			274.61,337.65 274.81,337.65 274.81,337.24 274.81,337.03 275.02,336.62 275.02,336.21 275.02,335.59 275.23,334.76 
			275.23,333.94 275.23,333.32 275.43,332.7 275.43,332.08 275.43,331.26 275.43,330.23 275.64,329.4 275.64,329.2 275.64,331.26 
			275.85,331.05 275.85,322.39 275.85,302.6 276.05,271.87 276.05,234.55 276.05,195.99 276.26,162.59 276.26,139.9 276.26,130.62 
			276.47,133.92 276.47,144.85 276.47,158.05 276.47,169.6 276.67,181.56 276.67,193.93 276.67,206.3 276.88,218.05 276.88,229.39 
			276.88,239.91 277.09,249.81 277.09,259.09 277.09,267.95 277.29,276.61 277.29,285.07 277.29,292.9 277.5,300.53 277.5,307.34 
			277.5,313.52 277.7,319.09 277.7,324.25 277.7,328.58 277.7,332.49 277.91,336.21 277.91,339.3 277.91,341.98 278.12,344.04 
			278.12,345.69 278.12,347.34 278.32,348.78 278.32,350.23 278.32,351.67 278.53,352.91 278.53,353.94 278.53,354.97 278.74,355.8 
			278.74,356.41 278.74,356.83 278.74,357.45 278.94,357.86 278.94,358.27 278.94,358.68 279.15,358.89 279.15,359.09 279.15,359.3 
			279.36,359.51 279.36,359.71 279.36,359.92 279.56,359.92 279.56,360.13 279.56,360.33 279.77,360.33 279.77,360.54 
			279.77,360.74 279.98,360.95 279.98,361.16 280.18,361.36 280.18,361.57 280.18,361.78 280.39,361.98 280.39,362.19 
			280.39,362.39 280.6,362.39 280.6,362.19 280.8,361.98 280.8,362.19 281.01,362.6 281.01,362.81 281.01,363.01 281.22,362.81 
			281.42,362.81 281.42,363.01 281.63,363.01 281.84,363.01 282.04,363.22 282.04,363.43 282.04,363.22 282.25,363.22 
			282.25,363.43 282.45,363.43 282.45,363.63 282.66,363.63 282.66,363.43 282.87,363.63 282.87,363.84 283.07,363.84 
			283.07,363.63 283.07,363.43 283.28,363.43 283.28,363.63 283.28,363.84 283.49,364.04 283.49,364.25 283.69,364.25 
			283.69,364.04 283.69,363.84 283.9,363.63 283.9,363.43 284.11,363.43 284.11,363.22 284.31,363.22 284.31,363.43 284.52,363.43 
			284.52,363.63 284.73,363.63 284.73,363.43 284.93,363.43 285.14,363.43 285.35,363.22 285.55,363.22 285.55,363.43 
			285.76,363.63 285.76,363.84 285.97,363.84 286.17,363.63 286.17,363.43 286.17,363.22 286.17,363.01 286.38,363.01 
			286.38,363.22 286.38,363.43 286.59,363.63 286.59,363.43 286.79,363.22 287,363.22 287.21,363.22 287.21,363.01 287.41,363.01 
			287.62,363.01 287.82,363.01 287.82,363.22 288.03,363.22 288.03,363.01 288.24,363.01 288.24,362.81 288.44,362.81 
			288.44,363.01 288.44,362.81 288.65,362.6 288.65,362.39 288.65,362.19 288.86,362.19 288.86,362.39 289.06,362.6 289.27,362.39 
			289.27,362.19 289.27,361.98 289.48,361.78 289.48,361.57 289.48,361.36 289.68,361.57 289.89,361.78 290.1,361.78 290.3,361.78 
			290.51,361.57 290.72,361.57 290.72,361.36 290.92,361.16 290.92,360.95 290.92,360.74 291.13,360.54 291.13,360.33 
			291.34,360.13 291.54,360.33 291.54,360.54 291.75,360.54 291.75,360.33 291.75,359.92 291.96,359.71 292.16,359.92 
			292.37,359.71 292.37,359.51 292.58,359.51 292.58,359.71 292.78,359.92 292.78,359.71 292.78,359.51 292.99,359.3 292.99,359.09 
			292.99,358.89 293.19,358.89 293.19,358.68 293.4,358.68 293.61,358.48 293.81,358.48 293.81,358.27 294.02,358.06 294.02,357.86 
			294.02,357.65 294.23,357.65 294.23,357.86 294.43,357.86 294.43,358.06 294.43,358.27 294.64,358.06 294.64,357.86 
			294.85,357.65 294.85,357.24 294.85,357.03 295.05,357.03 295.05,356.83 295.05,356.62 295.26,356.62 295.26,356.41 
			295.47,356.21 295.67,356 295.88,356 295.88,355.8 296.09,355.8 296.29,355.8 296.5,355.8 296.71,355.59 296.71,355.38 
			296.71,355.18 296.91,354.76 296.91,354.56 297.12,354.76 297.12,354.97 297.33,354.76 297.33,354.56 297.33,354.15 
			297.53,354.15 297.74,354.15 297.74,353.94 297.94,353.73 298.15,353.94 298.15,353.73 298.36,353.53 298.36,353.32 
			298.36,353.12 298.56,353.12 298.56,352.91 298.77,352.7 298.98,352.7 298.98,352.5 298.98,352.29 299.18,352.08 299.39,352.08 
			299.39,351.88 299.6,351.67 299.6,351.26 299.6,351.05 299.8,351.05 300.01,351.26 300.01,351.47 300.22,351.47 300.22,351.26 
			300.42,351.05 300.42,350.85 300.42,350.64 300.63,350.43 300.63,350.23 300.84,350.23 300.84,350.02 301.04,349.82 
			301.04,349.61 301.04,349.4 301.25,349.4 301.25,349.2 301.25,348.99 301.46,348.99 301.46,348.78 301.46,348.58 301.66,348.58 
			301.66,348.37 301.87,348.37 302.08,348.37 302.08,348.58 302.08,348.37 302.28,348.17 302.28,347.96 302.28,347.75 
			302.28,347.34 302.49,347.14 302.7,347.14 302.7,347.34 302.7,347.14 302.9,346.93 302.9,346.52 302.9,346.31 303.11,346.1 
			303.31,346.1 303.31,346.31 303.52,346.1 303.52,346.31 303.52,346.72 303.73,346.93 303.73,347.34 303.73,347.55 303.93,347.55 
			303.93,347.75 303.93,347.96 304.14,348.17 304.14,348.37 304.35,348.58 304.35,348.78 304.35,348.99 304.55,349.2 304.55,349.4 
			304.55,349.61 304.76,349.82 304.76,350.02 304.76,350.23 304.97,350.43 304.97,350.85 304.97,351.05 305.17,351.05 
			305.38,351.05 305.38,351.26 305.59,351.47 305.59,351.67 305.59,351.88 305.59,352.08 305.79,352.29 305.79,352.7 305.79,352.91 
			306,353.12 306,353.53 306,353.73 306.21,353.73 306.21,353.94 306.21,354.15 306.41,354.35 306.41,354.56 306.41,354.76 
			306.62,354.97 306.62,355.18 306.62,355.38 306.62,355.59 306.83,355.59 306.83,355.8 306.83,356 307.03,356 307.03,356.21 
			307.24,356.21 307.24,356.41 307.45,356.83 307.45,357.03 307.45,357.45 307.65,357.86 307.65,358.27 307.65,358.48 
			307.86,358.48 308.07,358.48 308.07,358.68 308.07,359.09 308.27,359.3 308.27,359.51 308.27,359.71 308.48,359.71 308.48,359.92 
			308.48,360.13 308.68,360.33 308.68,360.54 308.68,360.74 308.89,360.74 		"/>
		<polyline class="st0" points="308.89,360.74 308.89,360.54 308.89,360.74 309.1,360.95 309.1,361.36 309.1,361.78 309.3,361.78 
			309.3,361.98 309.3,362.19 309.51,362.19 309.51,362.39 309.72,362.6 309.72,362.81 309.92,363.01 309.92,363.22 310.13,363.63 
			310.13,363.84 310.13,364.04 310.34,364.25 310.34,364.46 310.54,364.46 310.54,364.25 310.75,364.25 310.75,364.46 
			310.75,364.66 310.96,365.07 310.96,365.49 310.96,365.69 310.96,366.11 311.16,366.11 311.16,366.31 311.37,366.31 
			311.58,366.52 311.78,366.72 311.99,366.93 311.99,367.14 311.99,367.34 312.2,367.34 312.2,367.55 312.2,367.76 312.4,367.76 
			312.4,367.96 312.4,368.17 312.61,368.37 312.61,368.58 312.61,368.79 312.82,368.99 312.82,369.2 312.82,369.4 313.02,369.4 
			313.23,369.4 313.44,369.61 313.44,370.02 313.44,370.23 313.64,370.44 313.85,370.44 313.85,370.64 314.05,370.85 314.05,371.05 
			314.26,371.05 314.26,370.85 314.47,371.05 314.47,371.26 314.47,371.67 314.67,371.67 314.67,371.88 314.88,372.09 
			315.09,372.29 315.09,372.5 315.29,372.7 315.5,372.91 315.5,373.12 315.71,373.32 315.71,373.53 315.91,373.53 315.91,373.32 
			316.12,373.12 316.12,373.32 316.12,373.53 316.33,373.74 316.33,373.94 316.33,374.15 316.33,374.35 316.53,374.56 
			316.53,374.77 316.74,374.77 316.74,374.97 316.95,374.97 317.15,375.18 317.36,375.38 317.36,375.59 317.57,375.8 317.57,376 
			317.77,376 317.77,376.21 317.98,376.21 317.98,376 318.19,376 318.19,375.8 318.39,375.8 318.39,376 318.6,376.21 318.6,376.62 
			318.6,376.83 318.8,376.83 318.8,376.62 319.01,376.62 319.01,376.83 319.01,377.03 319.22,377.03 319.22,377.24 319.42,377.03 
			319.42,377.24 319.63,377.45 319.63,377.65 319.63,377.86 319.63,378.07 319.84,378.07 319.84,377.86 320.04,377.86 
			320.25,377.86 320.46,378.07 320.66,378.07 320.87,378.27 321.08,378.48 321.08,378.27 321.08,378.07 321.28,378.07 
			321.28,378.27 321.49,378.48 321.49,378.68 321.49,378.89 321.7,378.89 321.9,378.68 321.9,378.48 322.11,378.48 322.32,378.68 
			322.32,378.89 322.52,379.1 322.52,379.3 322.52,379.51 322.73,379.51 322.73,379.72 322.94,379.72 323.14,379.72 323.35,379.72 
			323.35,379.51 323.56,379.51 323.56,379.3 323.76,379.1 323.76,379.3 323.76,379.51 323.97,379.72 323.97,380.13 323.97,380.33 
			324.17,380.33 324.17,380.13 324.17,379.92 324.38,379.72 324.38,379.92 324.59,380.33 324.79,380.33 324.79,380.13 325,380.13 
			325,380.33 325,380.75 325.21,380.95 325.21,380.75 325.41,380.54 325.41,380.75 325.41,380.54 325.62,380.54 325.62,380.75 
			325.83,380.75 326.03,380.75 326.03,380.95 326.24,380.95 326.45,380.95 326.45,381.16 326.65,381.57 326.65,381.78 
			326.86,381.78 326.86,381.57 327.07,381.36 327.07,381.16 327.07,380.95 327.27,380.95 327.27,381.16 327.48,381.16 
			327.48,381.36 327.69,381.57 327.69,381.78 327.89,381.98 327.89,382.19 328.1,382.19 328.31,382.19 328.31,382.4 328.31,382.19 
			328.51,382.4 328.51,382.19 328.72,382.19 328.72,381.98 328.72,381.78 328.93,381.78 328.93,381.98 329.13,382.19 329.13,382.4 
			329.13,382.6 329.34,382.81 329.34,383.01 329.34,382.81 329.54,382.6 329.75,382.6 329.75,382.81 329.75,383.01 329.96,383.01 
			329.96,382.81 330.16,382.81 330.16,383.01 330.37,383.01 330.37,383.22 330.58,383.22 330.78,383.22 330.99,383.22 331.2,383.22 
			331.2,383.43 331.4,383.43 331.61,383.43 331.61,383.63 331.82,383.63 331.82,383.84 331.82,383.63 332.02,383.43 332.02,383.22 
			332.23,383.43 332.23,383.63 332.23,383.84 332.44,384.05 332.64,383.84 332.64,383.63 332.85,383.43 332.85,383.22 
			333.06,383.43 333.06,383.63 333.26,383.84 333.26,384.05 333.47,384.25 333.68,384.46 333.88,384.25 334.09,384.25 
			334.29,384.25 334.29,384.05 334.29,383.84 334.5,383.63 334.5,383.43 334.71,383.43 334.71,383.63 334.71,383.84 334.91,384.25 
			335.12,384.25 335.12,384.05 335.12,383.84 335.33,383.63 335.33,383.84 335.33,384.05 335.53,384.25 335.74,384.05 
			335.74,383.84 335.74,383.63 335.95,383.63 335.95,383.84 335.95,384.05 336.15,384.05 336.15,384.25 336.15,384.05 
			336.36,384.25 336.57,384.05 336.77,384.25 336.77,384.46 336.98,384.25 337.19,384.25 337.19,384.46 337.19,384.66 
			337.39,384.87 337.39,384.66 337.6,384.46 337.6,384.25 337.81,384.25 337.81,384.46 338.01,384.66 338.01,384.87 338.22,385.08 
			338.43,385.08 338.63,385.08 338.84,385.08 339.05,385.08 339.25,385.08 339.25,385.28 339.46,385.28 339.46,385.08 
			339.66,385.08 339.66,384.87 339.66,384.66 339.87,384.46 339.87,384.25 340.08,384.25 340.08,384.46 340.08,384.66 
			340.08,384.87 340.28,385.08 340.28,384.87 340.49,384.66 340.49,384.46 340.7,384.66 340.7,384.87 340.9,384.87 340.9,384.66 
			340.9,384.46 341.11,384.46 341.11,384.66 341.11,384.87 341.32,385.08 341.52,384.87 341.52,384.66 341.73,384.46 341.73,384.66 
			341.94,384.66 342.14,384.66 342.14,384.46 342.35,384.46 342.35,384.66 342.56,384.66 342.76,384.46 342.76,384.25 
			342.97,384.46 342.97,384.66 342.97,384.87 343.18,384.87 343.18,384.66 343.38,384.66 343.38,384.46 343.59,384.25 
			343.59,384.05 343.8,384.25 343.8,384.46 344,384.66 344,384.87 344.21,384.87 344.42,384.87 344.62,384.87 344.83,384.66 
			345.03,384.66 345.03,384.46 345.24,384.25 345.24,384.05 345.45,383.84 345.45,384.05 345.45,384.25 345.65,384.66 
			345.65,384.87 345.86,384.87 345.86,384.46 345.86,384.25 346.07,384.25 346.07,384.46 346.27,384.66 346.48,384.66 
			346.48,384.46 346.69,384.46 346.89,384.46 346.89,384.66 347.1,384.46 347.1,384.66 347.31,384.66 347.31,384.46 347.51,384.66 
			347.51,384.87 347.72,384.87 347.72,384.66 347.72,384.46 347.93,384.66 347.93,384.87 348.13,385.08 348.13,385.28 
			348.13,385.08 348.34,385.08 348.34,384.87 348.34,384.66 348.55,384.46 348.55,384.66 348.75,384.66 348.75,384.87 
			348.75,385.08 348.96,385.28 348.96,385.49 349.17,385.49 349.37,385.49 349.58,385.49 349.79,385.49 349.99,385.49 
			349.99,385.69 350.2,385.69 350.4,385.69 350.4,385.49 350.61,385.28 350.61,385.08 350.61,384.87 350.82,384.87 350.82,385.28 
			351.02,385.49 351.02,385.69 351.23,385.49 351.23,385.28 351.23,385.08 351.44,385.08 351.44,385.28 351.64,385.28 
			351.64,385.49 351.64,385.28 351.85,385.28 351.85,385.08 351.85,385.28 352.06,385.69 352.06,385.9 352.06,385.69 352.26,385.69 
			352.26,385.49 352.26,385.28 352.47,385.28 352.47,385.49 352.68,385.49 352.88,385.49 352.88,385.28 353.09,385.28 
			353.09,385.49 353.3,385.49 353.5,385.28 353.5,385.08 353.71,385.28 353.71,385.49 353.71,385.69 353.92,385.69 353.92,385.49 
			353.92,385.28 354.12,385.08 354.12,384.87 354.33,384.87 354.54,385.08 354.54,385.28 354.54,385.49 354.74,385.49 
			354.74,385.69 354.95,385.69 354.95,385.9 355.15,385.9 355.36,385.9 355.57,385.9 355.77,385.9 355.77,385.69 355.98,385.49 
			355.98,385.08 355.98,384.87 356.19,384.87 356.19,384.66 356.19,384.87 356.39,385.08 356.39,385.49 356.6,385.49 356.6,385.28 
			356.81,385.08 356.81,384.87 357.01,385.08 357.01,385.28 357.22,385.28 357.22,385.08 357.43,385.28 357.43,385.49 
			357.63,385.49 357.63,385.28 357.84,385.28 358.05,385.28 358.05,385.49 358.05,385.28 358.25,385.28 358.46,385.28 
			358.46,385.08 358.67,385.08 358.87,385.08 358.87,385.28 358.87,385.49 359.08,385.69 359.08,385.49 359.08,385.28 
			359.29,385.08 359.29,384.87 359.29,384.66 359.49,384.66 359.49,384.87 359.7,384.87 359.7,385.08 359.7,385.28 359.91,385.28 
			359.91,385.49 359.91,385.28 360.11,385.28 360.11,385.49 360.32,385.49 360.52,385.49 360.73,385.49 360.94,385.49 
			360.94,385.28 361.14,385.28 361.14,385.08 361.35,384.87 361.35,384.66 361.56,384.46 361.56,384.66 361.56,384.87 
			361.76,385.28 361.76,385.49 361.97,385.28 361.97,385.08 361.97,384.87 362.18,384.66 362.18,384.87 362.38,385.08 
			362.59,384.87 362.59,384.66 362.59,384.87 362.8,385.08 362.8,385.28 362.8,385.49 363,385.28 363,385.08 363.21,384.87 
			363.21,385.08 363.42,385.08 363.62,385.08 363.83,385.08 363.83,384.87 363.83,385.08 364.04,385.08 364.24,385.08 
			364.24,384.87 364.45,384.66 364.45,384.87 364.66,385.08 364.66,385.28 364.66,385.49 364.86,385.49 364.86,385.28 
			365.07,385.08 365.07,384.87 365.28,384.66 365.28,384.46 365.48,384.46 365.48,384.66 365.69,384.66 365.69,384.87 
			365.89,385.08 366.1,384.87 366.1,384.66 366.31,384.66 366.31,384.46 366.51,384.46 366.51,384.25 366.72,384.25 366.72,384.46 
			366.93,384.66 366.93,384.87 366.93,385.08 367.13,385.28 367.13,385.08 367.13,384.87 367.34,384.66 367.34,384.46 
			367.55,384.66 367.55,384.87 367.75,384.87 367.75,384.66 367.96,384.66 368.17,384.87 368.37,384.87 368.37,384.66 
			368.58,384.66 368.79,384.66 368.99,384.87 368.99,384.66 369.2,384.87 369.41,385.08 369.61,385.08 369.61,384.87 369.61,384.66 
			369.82,384.66 369.82,384.87 370.03,385.08 370.03,385.28 370.23,385.49 370.44,385.28 370.64,385.08 370.85,385.08 
			370.85,384.87 371.06,384.87 371.06,384.66 371.26,384.66 371.47,384.87 371.68,385.08 371.68,385.28 371.88,385.28 
			371.88,385.49 372.09,385.69 372.09,385.9 372.3,385.9 372.3,385.69 372.3,385.49 372.5,385.28 372.5,385.08 372.71,385.28 
			372.71,385.49 372.71,385.69 372.92,385.69 372.92,385.49 373.12,385.28 373.12,385.49 373.33,385.49 373.33,385.28 
			373.54,385.28 373.74,385.28 373.74,385.49 373.95,385.28 373.95,385.49 374.16,385.49 374.36,385.49 374.57,385.49 
			374.78,385.49 374.98,385.49 374.98,385.28 375.19,385.49 375.19,385.69 375.4,385.9 375.4,385.69 375.6,385.49 375.6,385.28 
			375.6,385.08 375.81,384.87 375.81,385.08 376.01,385.28 376.01,385.69 376.22,385.9 376.43,385.9 376.63,385.9 376.63,385.69 
			376.84,385.69 376.84,385.49 376.84,385.69 377.05,385.69 377.25,385.9 377.25,385.69 377.46,385.69 377.67,385.49 377.67,385.28 
			377.67,385.08 377.67,384.87 377.87,384.66 377.87,384.87 378.08,385.28 378.08,385.49 378.08,385.69 378.29,385.49 
			378.29,385.28 378.29,385.08 378.49,384.87 378.49,385.08 378.7,385.28 378.91,385.08 379.11,385.08 379.11,385.28 379.32,385.28 
			379.32,385.08 379.53,385.08 379.53,385.28 379.73,385.28 379.73,385.08 379.94,385.28 379.94,385.08 380.15,385.08 
			380.15,384.87 380.15,385.08 380.35,385.08 380.56,385.28 380.77,385.08 380.77,384.87 380.77,384.66 380.97,384.46 
			380.97,384.66 381.18,384.87 381.18,385.08 381.18,385.28 381.38,385.28 381.59,385.28 		"/>
		<polyline class="st0" points="381.59,385.28 381.8,385.28 382,385.28 382.21,385.28 382.42,385.28 382.62,385.28 382.83,385.08 
			382.83,384.66 383.04,384.46 383.24,384.66 383.24,384.87 383.24,385.08 383.45,385.28 383.45,385.08 383.66,384.87 
			383.66,384.66 383.66,384.87 383.86,384.87 383.86,385.08 384.07,385.08 384.07,384.87 384.28,384.87 384.28,385.08 
			384.48,385.49 384.48,385.28 384.69,385.28 384.69,385.08 384.9,385.08 384.9,384.87 385.1,384.87 385.1,385.08 385.31,385.08 
			385.31,384.87 385.52,384.87 385.52,385.08 385.72,385.08 385.93,384.87 385.93,384.66 385.93,384.46 386.14,384.46 
			386.14,384.66 386.14,384.87 386.34,385.08 386.34,385.28 386.34,385.08 386.55,385.08 386.55,384.87 386.55,384.66 
			386.75,384.66 386.75,384.46 386.96,384.46 386.96,384.25 387.17,384.46 387.37,384.66 387.37,384.87 387.58,384.87 
			387.79,384.87 387.79,384.66 387.99,384.66 387.99,384.46 387.99,384.25 388.2,384.05 388.2,383.84 388.41,384.05 388.41,384.25 
			388.61,384.46 388.61,384.66 388.61,384.87 388.82,384.66 388.82,384.25 389.03,384.05 389.03,383.84 389.23,384.05 
			389.23,384.25 389.23,384.46 389.44,384.46 389.44,384.25 389.44,384.05 389.65,384.05 389.65,384.25 389.65,384.46 
			389.85,384.66 390.06,384.46 390.06,384.25 390.27,384.05 390.47,384.05 390.68,384.05 390.89,384.05 390.89,384.25 
			391.09,384.05 391.09,383.84 391.3,383.63 391.3,383.84 391.5,384.05 391.5,384.25 391.5,384.46 391.71,384.46 391.71,384.25 
			391.71,384.05 391.92,384.05 391.92,383.84 391.92,383.63 392.12,383.63 392.12,383.43 392.12,383.22 392.33,383.01 
			392.33,382.81 392.54,382.81 392.74,382.81 392.95,382.81 393.16,382.81 393.36,382.81 393.36,383.01 393.57,383.22 
			393.57,383.43 393.78,383.63 393.78,383.43 393.98,383.22 393.98,383.01 393.98,382.81 394.19,382.81 394.19,383.01 
			394.19,383.22 394.4,383.43 394.4,383.63 394.4,383.43 394.6,383.22 394.6,383.01 394.81,383.01 394.81,383.22 395.02,383.01 
			395.02,382.81 395.22,382.81 395.43,383.01 395.43,382.81 395.64,382.81 395.84,382.81 396.05,382.81 396.26,382.81 
			396.46,382.81 396.46,382.6 396.67,382.6 396.67,382.4 396.87,382.6 396.87,382.81 396.87,383.01 397.08,383.01 397.08,382.81 
			397.08,382.6 397.29,382.4 397.29,382.19 397.49,382.19 397.49,382.4 397.49,382.6 397.7,382.6 397.7,382.81 397.91,383.01 
			398.11,383.22 398.32,383.22 398.53,383.22 398.73,383.22 398.73,383.01 398.94,383.01 399.15,382.81 399.15,382.6 399.15,382.19 
			399.35,381.98 399.35,382.19 399.35,382.4 399.56,382.6 399.56,382.81 399.56,383.01 399.77,383.01 399.77,382.81 399.77,382.6 
			399.97,382.4 399.97,382.19 399.97,382.4 400.18,382.6 400.18,382.81 400.18,382.6 400.39,382.6 400.39,382.4 400.59,382.6 
			400.59,382.81 400.8,383.01 400.8,382.81 400.8,382.6 401.01,382.6 401.21,382.6 401.21,382.81 401.42,382.6 401.63,382.81 
			401.83,382.6 401.83,382.4 402.04,382.4 402.04,382.6 402.04,382.81 402.24,383.01 402.24,383.22 402.24,383.01 402.45,382.81 
			402.45,382.6 402.45,382.4 402.66,382.4 402.66,382.19 402.86,381.98 402.86,382.19 403.07,382.19 403.07,382.4 403.28,382.4 
			403.48,382.6 403.69,382.6 403.9,382.4 404.1,382.4 404.1,382.19 404.31,382.19 404.52,382.4 404.52,382.6 404.52,382.81 
			404.52,383.01 404.72,383.01 404.72,382.81 404.93,382.6 404.93,382.4 404.93,382.19 405.14,382.4 405.14,382.6 405.14,382.81 
			405.34,382.81 405.34,382.6 405.55,382.6 405.55,382.4 405.55,382.6 405.76,382.6 405.96,382.4 405.96,382.19 405.96,381.98 
			406.17,382.19 406.17,382.4 406.38,382.4 406.58,382.4 406.79,382.4 406.99,382.4 406.99,382.6 406.99,382.4 407.2,382.4 
			407.2,382.19 407.41,382.19 407.61,382.4 407.82,382.19 407.82,381.98 407.82,381.78 407.82,381.57 408.03,381.36 408.23,381.57 
			408.23,381.78 408.23,381.98 408.44,381.98 408.65,381.78 408.85,381.78 408.85,381.57 408.85,381.36 409.06,381.36 
			409.27,381.36 409.27,381.16 409.47,381.16 409.68,381.36 409.89,381.57 409.89,381.36 410.09,381.16 410.09,380.95 
			410.09,380.75 410.3,380.54 410.3,380.33 410.3,380.54 410.51,380.54 410.51,380.75 410.51,380.95 410.71,380.75 410.71,380.54 
			410.71,380.33 410.92,380.33 411.13,380.54 411.13,380.33 411.33,380.33 411.33,380.13 411.33,379.92 411.54,379.92 
			411.54,380.13 411.75,380.33 411.95,380.33 412.16,380.13 412.16,380.33 412.36,380.33 412.57,380.13 412.57,380.33 
			412.78,380.33 412.78,380.54 412.78,380.75 412.98,380.75 412.98,380.54 413.19,380.33 413.19,380.13 413.19,379.92 413.4,380.13 
			413.6,380.33 413.6,380.54 413.81,380.54 413.81,380.75 414.02,380.75 414.22,380.75 414.43,380.75 414.64,380.75 414.84,380.75 
			415.05,380.75 415.05,380.54 415.05,380.33 415.26,380.13 415.26,379.92 415.26,380.13 415.46,380.13 415.46,380.54 
			415.46,380.75 415.67,380.75 415.67,380.95 415.67,380.75 415.88,380.75 415.88,380.33 416.08,380.33 416.08,380.54 
			416.29,380.54 416.5,380.54 416.7,380.75 416.91,380.75 416.91,380.54 417.12,380.54 417.12,380.33 417.32,380.33 417.53,380.33 
			417.73,380.13 417.94,380.13 417.94,380.33 418.15,380.33 418.35,380.13 418.35,379.72 418.35,379.51 418.56,379.51 
			418.56,379.72 418.77,379.92 418.77,380.13 418.77,380.33 418.97,380.33 418.97,380.13 419.18,379.92 419.18,379.72 
			419.39,379.72 419.39,379.51 419.59,379.51 419.59,379.3 419.8,379.3 419.8,379.51 420.01,379.51 420.01,379.3 420.21,379.3 
			420.21,379.1 420.42,379.1 420.42,379.3 420.63,379.3 420.63,379.51 420.63,379.72 420.83,379.92 420.83,380.13 421.04,380.13 
			421.04,379.92 421.04,379.51 421.25,379.3 421.25,379.1 421.45,379.3 421.45,379.72 421.45,379.92 421.66,379.92 421.66,379.72 
			421.66,379.51 421.87,379.3 421.87,379.51 421.87,379.72 422.07,379.72 422.07,379.51 422.28,379.3 422.28,379.1 422.48,379.3 
			422.48,379.51 422.69,379.72 422.9,379.51 422.9,379.72 422.9,379.92 423.1,379.72 423.31,379.72 423.31,379.92 423.52,379.92 
			423.72,379.72 423.72,379.51 423.93,379.51 423.93,379.72 423.93,380.13 423.93,380.33 424.14,380.33 424.34,380.13 
			424.55,380.13 424.55,379.92 424.76,379.92 424.76,379.72 424.96,379.72 424.96,379.51 424.96,379.72 425.17,379.51 
			425.38,379.51 425.38,379.72 425.58,379.72 425.58,379.92 425.79,380.13 425.79,380.33 426,380.54 426,380.75 426.2,380.75 
			426.2,380.54 426.41,380.33 426.41,380.13 426.62,380.13 426.62,380.54 426.82,380.54 427.03,380.33 427.03,380.13 427.24,380.33 
			427.44,380.13 427.44,379.92 427.44,379.72 427.65,379.72 427.65,379.92 427.85,379.92 427.85,379.72 427.85,379.92 
			428.06,379.92 428.27,379.92 428.47,379.92 428.47,380.13 428.68,380.13 428.68,379.92 428.89,379.92 428.89,379.72 
			429.09,379.92 429.09,380.13 429.3,380.33 429.3,380.13 429.3,379.72 429.3,379.51 429.51,379.51 429.51,379.3 429.71,379.51 
			429.71,379.72 429.71,380.33 		"/>
		<g>
			<line class="st0" x1="352.99" y1="338.06" x2="385.41" y2="338.06"/>
			<line class="st0" x1="352.99" y1="338.06" x2="352.99" y2="341.16"/>
			<line class="st0" x1="352.99" y1="338.06" x2="352.99" y2="334.97"/>
			<line class="st0" x1="385.41" y1="338.06" x2="385.41" y2="334.97"/>
			<line class="st0" x1="385.41" y1="338.06" x2="385.41" y2="341.16"/>
			<text transform="matrix(1.0016 0 0 1 352.7852 352.708)"><tspan x="0" y="0" class="st1 st2 st3">1</tspan><tspan x="6.6" y="0" class="st1 st2 st3">0</tspan></text>
			<text transform="matrix(1.0016 0 0 1 365.999 352.708)"><tspan x="0" y="0" class="st1 st2 st3"> </tspan><tspan x="3.31" y="0" class="st1 st2 st3">m</tspan><tspan x="13.41" y="0" class="st1 st2 st3">s</tspan></text>
			<line class="st0" x1="352.99" y1="338.06" x2="352.99" y2="286.1"/>
			<line class="st0" x1="352.99" y1="338.06" x2="356.09" y2="338.06"/>
			<line class="st0" x1="352.99" y1="338.06" x2="349.89" y2="338.06"/>
			<line class="st0" x1="352.99" y1="286.1" x2="349.89" y2="286.1"/>
			<line class="st0" x1="352.99" y1="286.1" x2="356.09" y2="286.1"/>
			<g>
				<text transform="matrix(1.0016 0 0 1 354.4346 316.2139)"><tspan x="0" y="0" class="st1 st2 st3">2</tspan><tspan x="6.6" y="0" class="st1 st2 st3">0</tspan></text>
				<text transform="matrix(1.0016 0 0 1 367.6533 316.2139)"><tspan x="0" y="0" class="st1 st2 st3"> </tspan><tspan x="3.31" y="0" class="st1 st2 st3">m</tspan><tspan x="13.41" y="0" class="st1 st2 st3">V</tspan></text>
			</g>
		</g>
	</g>
	<g>
		<g>
			<polygon points="173.43,364.29 171.93,376.62 170.43,364.29 			"/>
		</g>
		<text transform="matrix(1 0 0 1 169.8545 363.207)" class="st4 st5">I in</text>
	</g>
	<g>
		<g>
			<polygon points="304.88,330.89 303.38,343.22 301.88,330.89 			"/>
		</g>
		<text transform="matrix(1 0 0 1 299.9883 329.8125)" class="st4 st5">I out</text>
	</g>
	<g class="st6">
		<g>
			<polyline class="st7" points="211.34,368.2 206.47,368.2 206.47,362.2 			"/>
			<line class="st8" x1="206.47" y1="360.24" x2="206.47" y2="127.96"/>
			<polyline class="st7" points="206.47,126.98 206.47,120.98 212.47,120.98 			"/>
			<line class="st9" x1="214.29" y1="120.98" x2="226.1" y2="120.98"/>
			<polyline class="st7" points="227.01,120.98 233.01,120.98 233.01,126.98 			"/>
			<line class="st8" x1="233.01" y1="128.94" x2="233.01" y2="361.22"/>
			<polyline class="st7" points="233.01,362.2 233.01,368.2 227.01,368.2 			"/>
			<line class="st10" x1="225.8" y1="368.2" x2="217.95" y2="368.2"/>
			<line class="st7" x1="217.34" y1="368.2" x2="211.34" y2="368.2"/>
		</g>
	</g>
	<g class="st6">
		<g>
			<polyline class="st7" points="482.66,667.36 482.66,673.36 476.66,673.36 			"/>
			<line class="st11" x1="474.64" y1="673.36" x2="178.94" y2="673.36"/>
			<polyline class="st7" points="177.93,673.36 171.93,673.36 171.93,667.36 			"/>
			<line class="st12" x1="171.93" y1="665.37" x2="171.93" y2="429.05"/>
			<polyline class="st7" points="171.93,428.06 171.93,422.06 177.93,422.06 			"/>
			<line class="st11" x1="179.95" y1="422.06" x2="475.65" y2="422.06"/>
			<polyline class="st7" points="476.66,422.06 482.66,422.06 482.66,428.06 			"/>
			<line class="st12" x1="482.66" y1="430.05" x2="482.66" y2="666.37"/>
		</g>
	</g>
	<g class="st6">
		<line x1="233.01" y1="368.2" x2="482.66" y2="422.06"/>
		<g>
			<line class="st13" x1="233.01" y1="368.2" x2="238.87" y2="369.47"/>
			<line class="st14" x1="242.77" y1="370.31" x2="474.84" y2="420.37"/>
			<line class="st13" x1="476.79" y1="420.79" x2="482.66" y2="422.06"/>
		</g>
	</g>
	<g class="st6">
		<line x1="171.93" y1="419.57" x2="206.47" y2="368.2"/>
		<g>
			<line class="st13" x1="171.93" y1="419.57" x2="175.28" y2="414.59"/>
			<line class="st15" x1="177.42" y1="411.4" x2="202.05" y2="374.77"/>
			<line class="st13" x1="203.12" y1="373.18" x2="206.47" y2="368.2"/>
		</g>
	</g>
	<g>
		<defs>
			<rect id="SVGID_1_" x="203.57" y="435.03" width="222.07" height="230.04"/>
		</defs>
		<clipPath id="SVGID_2_">
			<use xlink:href="#SVGID_1_"  style="overflow:visible;"/>
		</clipPath>
		<g class="st16">
			<polyline class="st0" points="-555.39,668.69 -553.67,668.5 -553.67,668.32 -551.94,668.5 -551.94,668.69 -551.94,668.88 
				-550.21,668.88 -550.21,668.69 -548.48,668.69 -548.48,668.5 -548.48,668.32 -546.75,668.32 -546.75,668.13 -545.03,668.13 
				-545.03,668.32 -543.3,668.5 -543.3,668.69 -543.3,668.88 -541.57,668.88 -539.84,668.88 -539.84,668.69 -538.11,668.88 
				-538.11,668.69 -536.39,668.69 -534.66,668.5 -534.66,668.32 -534.66,668.13 -532.93,667.95 -531.2,668.13 -531.2,668.5 
				-531.2,668.69 -529.47,668.88 -527.74,668.69 -527.74,668.5 -527.74,668.32 -526.02,668.32 -526.02,668.5 -526.02,668.69 
				-526.02,668.88 -524.29,668.69 -524.29,668.5 -522.56,668.5 -522.56,668.69 -522.56,668.88 -520.83,668.88 -519.1,668.88 
				-519.1,668.69 -517.38,668.69 -517.38,668.88 -515.65,668.88 -515.65,668.69 -513.92,668.88 -512.19,668.88 -512.19,668.69 
				-510.46,668.69 -508.74,668.69 -508.74,669.06 -508.74,669.25 -507.01,669.25 -507.01,669.06 -507.01,668.88 -505.28,668.69 
				-505.28,668.5 -503.55,668.5 -501.82,668.69 -501.82,668.88 -500.1,669.06 -500.1,669.25 -498.37,669.25 -496.64,669.25 
				-496.64,669.43 -494.91,669.43 -493.18,669.43 -491.46,669.25 -491.46,669.06 -489.73,668.88 -489.73,668.69 -489.73,668.5 
				-488,668.5 -488,668.69 -486.27,668.88 -486.27,669.06 -486.27,669.25 -484.54,669.43 -484.54,669.25 -484.54,669.06 
				-482.81,668.88 -482.81,668.69 -481.09,668.69 -481.09,668.88 -481.09,669.06 -479.36,668.88 -479.36,668.69 -477.63,668.88 
				-477.63,669.06 -475.9,669.25 -474.17,669.06 -472.45,668.88 -470.72,668.88 -470.72,669.06 -468.99,668.88 -467.26,668.69 
				-467.26,668.88 -465.53,668.88 -463.81,668.88 -463.81,668.69 -463.81,668.5 -462.08,668.5 -462.08,668.69 -462.08,668.88 
				-460.35,669.06 -460.35,669.25 -460.35,669.06 -458.62,669.06 -458.62,668.88 -456.89,668.69 -456.89,668.5 -455.17,668.32 
				-453.44,668.5 -453.44,668.69 -451.71,668.69 -451.71,668.88 -449.98,668.88 -449.98,669.06 -448.25,668.88 -446.52,668.69 
				-444.8,668.5 -444.8,668.32 -443.07,668.13 -443.07,668.32 -441.34,668.5 -441.34,668.69 -441.34,668.88 -439.61,669.06 
				-439.61,668.88 -437.88,668.69 -437.88,668.5 -436.16,668.5 -436.16,668.69 -436.16,668.88 -434.43,668.88 -434.43,668.69 
				-432.7,668.5 -432.7,668.69 -430.97,668.88 -430.97,669.06 -429.24,669.06 -429.24,668.88 -427.52,668.88 -427.52,668.69 
				-425.79,668.88 -424.06,668.88 -422.33,668.88 -422.33,669.06 -420.6,668.88 -418.88,668.69 -418.88,668.88 -418.88,669.06 
				-417.15,669.25 -417.15,669.43 -415.42,669.43 -415.42,669.25 -415.42,669.06 -413.69,669.06 -413.69,668.88 -413.69,668.69 
				-411.96,668.69 -411.96,668.5 -410.23,668.5 -408.51,668.5 -408.51,668.69 -406.78,668.69 -406.78,668.5 -406.78,668.69 
				-405.05,668.5 -403.32,668.5 -401.59,668.5 -401.59,668.69 -399.87,668.69 -399.87,668.88 -398.14,669.06 -398.14,669.43 
				-396.41,669.43 -396.41,669.25 -394.68,668.88 -394.68,668.69 -392.95,668.88 -392.95,669.06 -392.95,669.25 -391.23,669.25 
				-391.23,669.06 -389.5,669.06 -387.77,669.06 -386.04,668.88 -386.04,668.69 -384.31,668.69 -384.31,668.88 -382.59,668.88 
				-382.59,669.06 -380.86,669.25 -380.86,669.06 -379.13,669.06 -377.4,669.25 -375.67,669.06 -373.94,668.88 -373.94,669.06 
				-373.94,669.25 -373.94,669.43 -372.22,669.25 -372.22,668.88 -370.49,668.69 -370.49,668.5 -368.76,668.69 -368.76,668.88 
				-367.03,669.06 -367.03,669.25 -365.3,669.43 -363.58,669.43 -361.85,669.43 -360.12,669.43 -358.39,669.43 -356.66,669.43 
				-354.94,669.43 -353.21,669.25 -353.21,669.06 -351.48,668.88 -351.48,668.69 -349.75,668.88 -349.75,669.06 -349.75,669.25 
				-348.02,669.43 -348.02,669.25 -346.3,669.06 -346.3,668.88 -344.57,669.06 -344.57,669.25 -342.84,669.06 -342.84,668.88 
				-341.11,668.88 -341.11,669.06 -339.38,669.25 -339.38,669.06 -337.65,669.06 -337.65,668.88 -335.93,669.06 -334.2,668.88 
				-334.2,669.06 -332.47,669.06 -332.47,669.25 -330.74,669.06 -329.01,669.06 -329.01,669.25 -329.01,669.43 -327.29,669.62 
				-327.29,669.8 -325.56,669.62 -325.56,669.43 -323.83,669.25 -323.83,669.06 -322.1,669.06 -320.37,669.25 -320.37,669.43 
				-318.65,669.43 -318.65,669.62 -316.92,669.62 -316.92,669.8 -315.19,669.8 -313.46,669.62 -311.73,669.62 -311.73,669.43 
				-311.73,669.25 -310.01,669.25 -310.01,669.06 -308.28,669.25 -308.28,669.43 -308.28,669.62 -306.55,669.8 -306.55,669.99 
				-304.82,669.99 -304.82,669.8 -304.82,669.62 -303.09,669.43 -301.36,669.62 -301.36,669.8 -299.64,669.62 -297.91,669.62 
				-297.91,669.8 -296.18,669.62 -296.18,669.43 -296.18,669.25 -294.45,669.25 -294.45,669.43 -292.72,669.62 -292.72,669.8 
				-292.72,669.62 -291,669.62 -289.27,669.62 -287.54,669.62 -287.54,669.8 -285.81,669.62 -284.08,669.43 -284.08,669.62 
				-282.36,669.8 -282.36,669.99 -282.36,669.8 -282.36,669.62 -280.63,669.43 -280.63,669.25 -278.9,669.25 -278.9,669.43 
				-277.17,669.62 -277.17,669.8 -275.44,669.99 -275.44,670.17 -273.72,670.17 -273.72,669.99 -271.99,669.99 -271.99,669.8 
				-270.26,669.8 -268.53,669.8 -266.8,669.8 -265.07,669.99 -263.35,669.99 -263.35,669.8 -263.35,669.62 -261.62,669.43 
				-261.62,669.25 -261.62,669.06 -259.89,669.06 -259.89,669.25 -258.16,669.43 -258.16,669.62 -256.43,669.62 -256.43,669.43 
				-256.43,669.25 -256.43,669.06 -254.71,669.25 -254.71,669.43 -252.98,669.43 -252.98,669.25 -251.25,669.06 -251.25,669.25 
				-249.52,669.25 -249.52,669.43 -247.79,669.25 -247.79,669.06 -246.07,669.06 -246.07,669.25 -244.34,669.06 -242.61,669.06 
				-240.88,669.06 -240.88,668.88 -239.15,668.88 -237.43,668.88 -237.43,669.25 -237.43,669.43 -235.7,669.25 -235.7,669.06 
				-233.97,668.88 -233.97,668.69 -232.24,668.69 -232.24,668.5 -230.51,668.69 -228.78,668.88 -228.78,669.06 -227.06,669.06 
				-227.06,669.25 -225.33,669.25 -223.6,669.25 -223.6,669.06 -221.87,669.06 -221.87,668.88 -220.14,668.88 -220.14,668.69 
				-218.42,668.88 -218.42,669.06 -216.69,669.25 -216.69,669.43 -214.96,669.62 -214.96,669.43 -213.23,669.06 -213.23,668.88 
				-211.5,668.88 -211.5,669.06 -211.5,669.25 -209.78,669.25 -209.78,669.06 -208.05,669.06 -208.05,669.25 -206.32,669.25 
				-206.32,669.06 -204.59,668.88 -202.86,669.06 -202.86,669.25 -202.86,669.43 -202.86,669.25 -201.14,669.25 -199.41,669.06 
				-199.41,669.25 -197.68,669.25 -195.95,669.25 -195.95,669.06 -194.22,669.06 -192.49,669.25 -192.49,669.06 -190.77,668.88 
				-190.77,668.69 -189.04,668.69 -189.04,668.88 -187.31,669.06 -187.31,669.25 -185.58,669.25 -183.85,669.25 -183.85,669.06 
				-183.85,668.88 -182.13,668.88 -180.4,668.88 -180.4,668.69 -178.67,668.69 -176.94,668.69 -175.21,668.88 -173.49,669.06 
				-171.76,669.06 -171.76,668.88 -170.03,668.69 -170.03,668.5 -170.03,668.32 -168.3,668.32 -168.3,668.5 -166.57,668.88 
				-166.57,668.69 -164.85,668.5 -163.12,668.69 -161.39,668.69 -161.39,668.5 -161.39,668.32 -159.66,668.32 -157.93,668.32 
				-157.93,668.5 -156.2,668.5 -156.2,668.69 -154.48,668.69 -154.48,668.5 -152.75,668.5 -152.75,668.69 -151.02,668.69 
				-151.02,668.5 -149.29,668.5 -147.56,668.69 -147.56,668.88 -145.84,668.69 -145.84,668.5 -145.84,668.32 -144.11,668.13 
				-142.38,668.13 -142.38,668.32 -140.65,668.5 -140.65,668.69 -138.92,668.69 -138.92,668.88 -137.2,668.88 -135.47,668.88 
				-133.74,668.88 -132.01,668.88 -130.28,668.69 -130.28,668.5 -128.56,668.32 -128.56,668.13 -126.83,668.13 -126.83,668.32 
				-125.1,668.5 -125.1,668.88 -123.37,668.88 -123.37,668.69 -123.37,668.5 -121.64,668.32 -121.64,668.13 -121.64,668.32 
				-121.64,668.5 -119.91,668.69 -119.91,668.5 -118.19,668.5 -118.19,668.32 -118.19,668.5 -116.46,668.5 -114.73,668.5 
				-113,668.32 -113,668.5 -113,668.69 -111.27,668.5 -109.55,668.32 -109.55,668.5 -107.82,668.5 -106.09,668.32 -104.36,668.5 
				-104.36,668.69 -102.63,668.69 -102.63,668.32 -102.63,668.13 -100.91,667.95 -100.91,668.13 -99.18,668.32 -99.18,668.5 
				-99.18,668.69 -97.45,668.69 -95.72,668.5 -95.72,668.32 -93.99,668.32 -93.99,668.13 -93.99,667.95 -92.26,667.95 
				-90.54,667.95 -88.81,667.95 -87.08,667.95 -85.35,667.95 -85.35,667.76 -83.62,667.76 -83.62,667.95 -81.9,668.13 -81.9,668.32 
				-81.9,668.5 -80.17,668.5 -80.17,668.69 -80.17,668.5 -78.44,668.5 -78.44,668.32 -78.44,668.13 -76.71,667.95 -76.71,668.13 
				-74.98,668.32 -73.26,668.13 -71.53,668.13 -69.8,667.95 -69.8,667.76 -69.8,667.39 -68.07,667.02 -68.07,666.83 -68.07,666.65 
				-66.34,666.46 -66.34,666.28 -66.34,666.09 -66.34,665.72 -64.62,665.53 -64.62,665.35 -64.62,665.16 -62.89,664.98 
				-62.89,664.61 -62.89,664.42 -61.16,664.23 -61.16,664.05 -61.16,663.86 -59.43,663.68 -59.43,663.49 -59.43,663.31 
				-57.7,663.12 -57.7,662.75 -57.7,662.38 -57.7,662.01 -55.98,661.82 -55.98,661.64 -55.98,661.45 -54.25,661.45 -54.25,661.26 
				-52.52,661.26 -52.52,661.08 -52.52,660.71 -50.79,660.52 -50.79,660.15 -50.79,659.96 -49.06,659.59 -49.06,659.41 
				-49.06,659.04 -49.06,658.85 -47.33,658.48 -47.33,658.29 -47.33,657.92 -45.61,657.74 -45.61,657.55 -45.61,657.37 
				-43.88,657.18 -43.88,656.99 -43.88,656.81 -42.15,656.62 -42.15,656.44 -42.15,656.25 -40.42,656.07 -40.42,655.88 
				-40.42,655.69 -40.42,655.51 -38.69,655.14 -38.69,654.77 -38.69,654.4 -36.97,654.02 -36.97,653.47 -36.97,653.1 -35.24,652.91 
				-35.24,652.54 -33.51,652.54 -33.51,652.35 -33.51,652.17 -31.78,651.8 -31.78,651.42 -31.78,650.87 -31.78,650.5 -30.05,650.31 
				-30.05,650.13 -30.05,649.94 -28.33,649.57 -28.33,649.2 -28.33,648.83 -26.6,648.45 -26.6,648.27 -26.6,647.9 -24.87,647.71 
				-24.87,647.53 -24.87,647.34 -23.14,646.78 -23.14,646.41 -23.14,646.04 -21.41,645.48 -21.41,644.93 -21.41,644.56 -21.41,644 
				-19.69,643.63 -19.69,643.07 -19.69,642.7 -17.96,642.14 -17.96,641.59 -17.96,640.47 -16.23,638.99 -16.23,637.87 
				-16.23,639.73 -14.5,644.93 -14.5,645.3 -14.5,633.79 -12.77,608.17 -12.77,570.11 -12.77,525.37 -12.77,481.56 -11.04,446.66 
				-11.04,426.79 -11.04,424.57 -9.32,436.82 -9.32,455.75 -9.32,473.58 -7.59,488.8 -7.59,504.21 -7.59,519.06 -5.86,532.98 
				-5.86,546.16 -5.86,558.79 -4.13,570.85 -4.13,582.18 -4.13,592.95 -4.13,602.97 -2.4,611.88 -2.4,619.49 -2.4,625.99 
				-0.68,631.38 -0.68,635.64 -0.68,639.17 1.05,641.96 1.05,644.37 1.05,646.41 2.78,648.08 2.78,649.38 2.78,650.5 4.51,651.42 
				4.51,651.98 4.51,652.54 4.51,652.91 6.24,653.28 6.24,653.65 6.24,654.02 7.96,654.21 7.96,654.58 7.96,654.77 9.69,655.14 
				9.69,655.32 9.69,655.51 11.42,655.69 11.42,655.51 13.15,655.32 13.15,655.14 13.15,654.95 13.15,655.14 14.88,655.32 
				14.88,655.51 16.61,655.32 16.61,655.14 18.33,654.95 18.33,655.14 20.06,655.14 20.06,655.32 21.79,655.14 21.79,654.95 
				23.52,654.95 23.52,654.77 25.25,654.58 26.97,654.58 			"/>
			<polyline class="st0" points="26.97,654.58 26.97,654.4 28.7,654.4 28.7,654.21 30.43,654.21 32.16,654.21 32.16,653.84 
				32.16,653.65 33.89,653.47 33.89,653.65 35.61,653.65 35.61,653.84 37.34,653.84 39.07,653.65 39.07,653.47 40.8,653.47 
				40.8,653.28 40.8,653.1 42.53,652.91 42.53,652.72 44.25,652.54 44.25,652.35 45.98,652.35 45.98,652.17 47.71,652.17 
				47.71,651.98 49.44,651.98 51.17,651.8 51.17,651.61 51.17,651.42 52.89,651.24 52.89,650.87 52.89,650.68 54.62,650.5 
				54.62,650.31 56.35,650.31 56.35,650.5 58.08,650.5 58.08,650.31 58.08,649.94 59.81,649.75 59.81,649.57 61.54,649.57 
				61.54,649.38 63.26,649.2 63.26,649.01 64.99,649.01 66.72,649.01 66.72,648.64 68.45,648.45 68.45,648.27 68.45,648.08 
				68.45,647.9 70.18,647.71 70.18,647.53 71.9,647.34 71.9,647.15 73.63,647.15 73.63,646.78 75.36,646.6 77.09,646.41 
				77.09,646.23 78.82,646.04 78.82,645.48 78.82,645.3 80.54,644.93 82.27,644.93 84,644.93 84,644.74 84,644.56 85.73,644.37 
				85.73,644 85.73,643.81 85.73,643.63 87.46,643.44 87.46,643.26 87.46,643.07 89.18,642.89 89.18,642.7 89.18,642.51 
				90.91,642.33 90.91,641.96 90.91,641.77 92.64,641.59 92.64,641.4 92.64,641.21 94.37,640.84 94.37,640.66 94.37,640.47 
				94.37,640.29 96.1,640.1 96.1,639.91 97.83,639.73 97.83,639.54 97.83,639.17 99.55,638.8 99.55,638.43 99.55,638.06 
				101.28,637.69 101.28,637.32 101.28,637.13 103.01,636.94 103.01,636.76 104.74,636.39 104.74,636.02 104.74,635.46 
				104.74,635.09 106.47,634.72 106.47,634.35 106.47,633.97 108.19,633.6 108.19,633.23 108.19,632.67 109.92,632.12 
				109.92,631.75 109.92,631.19 111.65,630.26 111.65,629.7 111.65,629.89 113.38,632.49 113.38,632.67 113.38,624.69 
				113.38,605.38 115.11,575.12 115.11,538 115.11,499.75 116.83,467.08 116.83,445.36 116.83,437.38 118.56,441.65 118.56,454.08 
				118.56,468.56 120.29,481.19 120.29,493.81 120.29,506.62 122.02,518.87 122.02,530.38 122.02,541.34 122.02,551.55 
				123.75,561.2 123.75,570.48 123.75,579.58 125.48,588.12 125.48,596.1 125.48,603.34 127.2,609.65 127.2,615.41 127.2,620.61 
				128.93,625.06 128.93,628.96 128.93,632.3 130.66,635.27 130.66,637.87 130.66,639.91 130.66,641.77 132.39,643.26 
				132.39,644.74 132.39,646.04 134.12,647.15 134.12,648.08 134.12,648.83 135.84,649.57 135.84,650.13 135.84,650.5 
				137.57,650.87 137.57,651.05 137.57,651.42 139.3,651.8 139.3,651.98 139.3,652.17 139.3,652.35 141.03,652.35 141.03,652.54 
				142.76,652.54 142.76,652.72 144.48,653.1 144.48,653.28 144.48,653.47 146.21,653.84 146.21,654.02 146.21,654.21 
				147.94,654.21 147.94,654.02 147.94,653.84 149.67,653.65 149.67,653.84 149.67,654.02 149.67,654.21 151.4,654.4 153.12,654.4 
				153.12,654.21 154.85,654.4 156.58,654.58 158.31,654.58 160.04,654.58 161.76,654.58 163.49,654.58 165.22,654.58 
				166.95,654.58 166.95,654.77 168.68,654.77 168.68,654.58 168.68,654.21 170.41,654.21 170.41,654.4 172.13,654.77 
				172.13,654.95 173.86,654.95 173.86,654.77 175.59,654.58 175.59,654.4 177.32,654.4 177.32,654.21 177.32,654.02 179.05,654.02 
				179.05,653.84 180.77,653.84 182.5,653.84 182.5,653.65 184.23,653.65 184.23,653.47 185.96,653.47 187.69,653.47 187.69,653.65 
				189.41,653.84 189.41,654.02 191.14,654.02 191.14,653.65 192.87,653.47 192.87,653.1 194.6,653.1 194.6,653.28 194.6,653.47 
				196.33,653.47 196.33,653.28 196.33,653.1 198.05,652.91 198.05,653.1 199.78,653.1 199.78,652.91 201.51,652.72 201.51,652.54 
				203.24,652.72 203.24,652.54 204.97,652.54 204.97,652.35 206.7,652.35 208.42,652.17 210.15,651.98 210.15,652.17 
				211.88,652.17 211.88,651.98 211.88,651.61 213.61,651.42 213.61,651.24 215.34,651.24 215.34,651.42 215.34,651.61 
				217.06,651.61 218.79,651.42 218.79,651.24 220.52,651.24 220.52,651.05 220.52,650.87 220.52,650.68 222.25,650.5 
				222.25,650.31 223.98,650.31 223.98,650.13 225.7,649.94 225.7,649.75 227.43,649.75 229.16,649.75 229.16,649.57 230.89,649.57 
				232.62,649.75 234.34,649.75 234.34,649.57 234.34,649.38 236.07,649.2 236.07,648.83 236.07,648.64 237.8,648.45 237.8,648.64 
				239.53,648.83 239.53,648.64 239.53,648.45 241.26,648.27 241.26,648.08 242.99,648.08 242.99,647.9 244.71,647.71 
				244.71,647.53 244.71,647.34 246.44,647.34 246.44,647.15 248.17,647.34 248.17,647.15 248.17,646.97 249.9,646.97 249.9,646.78 
				249.9,646.6 251.63,646.6 251.63,646.41 253.35,646.23 253.35,646.04 255.08,646.04 255.08,645.86 256.81,645.67 256.81,645.48 
				256.81,645.3 256.81,645.11 258.54,644.93 260.27,644.93 261.99,644.93 261.99,644.74 261.99,644.37 263.72,644.18 
				263.72,643.81 263.72,643.63 265.45,643.26 265.45,643.07 267.18,643.07 267.18,642.89 268.91,642.89 268.91,642.7 270.63,642.7 
				272.36,642.51 272.36,642.33 272.36,642.14 274.09,641.96 274.09,641.77 275.82,641.59 275.82,641.4 275.82,641.03 
				275.82,640.66 277.55,640.47 277.55,640.29 277.55,640.1 279.28,640.1 279.28,640.29 281,640.29 281,640.1 282.73,639.73 
				282.73,639.36 282.73,638.99 284.46,638.8 284.46,638.62 286.19,638.43 286.19,638.24 286.19,638.06 287.92,637.87 
				287.92,637.69 287.92,637.5 289.64,637.5 289.64,637.32 289.64,637.13 291.37,636.76 291.37,636.39 291.37,636.2 293.1,635.83 
				293.1,635.64 293.1,635.46 294.83,635.27 294.83,635.09 294.83,634.9 296.56,634.53 296.56,634.16 296.56,633.97 298.28,633.79 
				298.28,633.42 298.28,633.05 300.01,632.86 300.01,632.67 300.01,632.3 301.74,632.12 301.74,631.93 301.74,631.56 
				301.74,631.38 303.47,631 303.47,630.45 303.47,629.89 305.2,629.33 305.2,628.59 305.2,627.48 306.92,626.92 306.92,626.36 
				306.92,628.03 308.65,630.08 308.65,626.73 308.65,613.55 310.38,589.42 310.38,556.56 310.38,519.62 310.38,484.9 
				312.11,458.17 312.11,443.5 312.11,441.46 313.84,449.44 313.84,462.25 313.84,474.32 315.57,485.46 315.57,496.97 
				315.57,508.48 317.29,519.8 317.29,530.38 317.29,540.59 319.02,550.25 319.02,559.53 319.02,568.26 320.75,576.8 320.75,584.78 
				320.75,592.39 320.75,599.44 322.48,606.13 322.48,611.88 322.48,617.08 324.21,621.54 324.21,625.25 324.21,628.4 
				325.93,631.38 325.93,633.97 325.93,636.2 327.66,638.43 327.66,640.29 327.66,642.14 329.39,643.44 329.39,644.56 
				329.39,645.48 329.39,646.23 331.12,646.78 331.12,647.53 331.12,648.08 332.85,648.83 332.85,649.2 332.85,649.57 
				334.57,649.94 334.57,650.13 336.3,650.5 336.3,650.87 336.3,651.05 338.03,651.42 338.03,651.8 338.03,651.98 339.76,652.17 
				339.76,652.35 341.49,652.35 341.49,652.54 341.49,652.72 343.21,652.72 343.21,652.91 344.94,653.1 344.94,653.28 
				346.67,653.28 346.67,653.47 348.4,653.47 348.4,653.65 350.13,653.84 350.13,654.02 350.13,654.21 351.86,654.21 351.86,654.02 
				353.58,653.84 355.31,653.84 355.31,654.02 355.31,654.21 355.31,654.4 357.04,654.58 357.04,654.77 357.04,654.95 
				358.77,654.95 358.77,655.14 360.5,655.14 360.5,655.32 362.22,655.32 362.22,655.14 363.95,655.14 365.68,655.32 365.68,655.51 
				367.41,655.51 367.41,655.32 369.14,655.32 369.14,655.14 369.14,654.95 370.86,654.77 370.86,654.58 372.59,654.77 
				372.59,654.95 372.59,655.14 374.32,655.32 374.32,655.51 374.32,655.32 374.32,655.14 376.05,654.95 377.78,655.14 
				377.78,655.32 379.5,655.14 379.5,654.95 381.23,654.95 381.23,655.14 382.96,655.14 382.96,655.32 382.96,655.14 384.69,654.95 
				386.42,655.14 386.42,654.95 388.15,654.95 388.15,655.14 389.87,655.14 391.6,654.95 391.6,654.77 393.33,654.77 393.33,654.95 
				393.33,655.14 395.06,655.14 396.79,654.95 396.79,654.77 396.79,654.58 398.51,654.58 398.51,654.4 400.24,654.4 401.97,654.58 
				403.7,654.77 405.43,654.77 407.15,654.77 407.15,654.58 408.88,654.58 410.61,654.4 410.61,654.21 410.61,654.02 410.61,653.84 
				412.34,653.65 412.34,653.47 414.07,653.47 415.79,653.65 415.79,653.84 415.79,654.02 417.52,654.02 417.52,653.65 
				419.25,653.47 419.25,653.28 419.25,653.47 420.98,653.47 422.71,653.28 422.71,653.1 424.44,653.1 424.44,653.28 426.16,653.1 
				426.16,652.91 426.16,652.72 427.89,652.54 427.89,652.72 429.62,652.72 429.62,652.54 431.35,652.54 431.35,652.35 
				433.08,652.17 434.8,652.17 434.8,651.98 436.53,651.8 436.53,651.61 438.26,651.61 438.26,651.8 439.99,651.8 439.99,651.61 
				439.99,651.42 441.72,651.05 441.72,650.87 441.72,650.68 443.44,650.68 443.44,650.87 445.17,651.05 446.9,651.24 446.9,651.05 
				446.9,650.87 448.63,650.87 448.63,650.68 448.63,650.5 450.36,650.31 450.36,650.13 452.08,650.13 452.08,649.94 453.81,649.75 
				453.81,649.57 455.54,649.57 455.54,649.38 457.27,649.38 459,649.38 460.73,649.38 460.73,649.01 460.73,648.83 462.45,648.45 
				462.45,648.27 464.18,648.27 464.18,648.45 464.18,648.64 465.91,648.45 465.91,648.08 465.91,647.9 467.64,647.71 469.37,647.9 
				469.37,647.71 469.37,647.53 471.09,647.34 471.09,647.15 471.09,646.78 472.82,646.6 472.82,646.78 474.55,646.6 474.55,646.41 
				476.28,646.41 476.28,646.23 478.01,646.04 478.01,646.23 479.73,646.04 479.73,645.86 479.73,645.67 481.46,645.48 
				481.46,645.3 483.19,645.3 484.92,645.11 484.92,644.93 484.92,644.74 486.65,644.56 486.65,644.37 486.65,644.18 488.37,644.18 
				490.1,644.18 491.83,644.18 491.83,644 491.83,643.81 493.56,643.81 493.56,643.63 495.29,643.44 495.29,643.26 497.02,643.07 
				497.02,642.89 498.74,642.89 498.74,642.7 500.47,642.7 500.47,642.51 500.47,642.33 502.2,642.14 502.2,641.96 502.2,641.77 
				503.93,641.4 503.93,641.21 503.93,641.03 505.66,640.84 505.66,641.03 507.38,641.03 507.38,641.21 509.11,640.84 
				509.11,640.66 509.11,640.1 509.11,639.91 510.84,639.73 510.84,639.91 512.57,639.73 512.57,639.54 512.57,639.36 514.3,639.17 
				514.3,638.99 516.02,638.99 516.02,638.8 516.02,638.62 517.75,638.43 517.75,638.24 517.75,638.06 517.75,637.87 519.48,638.06 
				519.48,637.87 521.21,637.69 521.21,637.5 521.21,637.32 522.94,637.13 522.94,636.94 522.94,636.76 524.66,636.57 
				524.66,636.39 526.39,636.02 526.39,635.64 526.39,635.46 526.39,635.27 528.12,635.09 529.85,634.9 529.85,634.72 
				529.85,634.16 531.58,633.79 531.58,633.23 531.58,632.86 533.31,632.67 533.31,632.3 533.31,632.12 535.03,632.12 
				535.03,631.93 535.03,631.75 536.76,631.56 536.76,631.38 536.76,631.19 			"/>
			<polyline class="st0" points="536.76,631.19 536.76,630.82 538.49,630.63 538.49,630.26 538.49,629.7 540.22,629.33 
				540.22,628.78 540.22,628.22 541.95,627.66 541.95,626.92 541.95,625.99 543.67,624.88 543.67,623.95 543.67,623.76 
				545.4,625.81 545.4,626.73 545.4,620.61 545.4,604.27 547.13,577.35 547.13,543.38 547.13,507.36 548.86,475.25 548.86,452.41 
				548.86,441.83 550.59,443.5 550.59,453.53 550.59,466.34 552.31,478.03 552.31,489.54 552.31,501.24 554.04,512.75 
				554.04,523.89 554.04,534.28 554.04,544.31 555.77,553.78 555.77,562.69 555.77,571.23 557.5,579.39 557.5,587.01 557.5,594.06 
				559.23,600.56 559.23,606.5 559.23,611.7 560.95,616.52 560.95,620.61 560.95,624.32 562.68,627.48 562.68,630.45 562.68,633.05 
				562.68,635.46 564.41,637.32 564.41,639.17 564.41,640.66 566.14,641.96 566.14,643.26 566.14,644.37 567.87,645.11 
				567.87,645.86 567.87,646.41 569.6,647.15 569.6,647.71 569.6,648.08 571.32,648.45 571.32,648.83 571.32,649.01 571.32,649.38 
				573.05,649.75 573.05,649.94 573.05,650.31 574.78,650.68 574.78,650.87 576.51,650.87 578.24,650.87 578.24,651.05 
				578.24,651.24 579.96,651.61 579.96,651.98 579.96,652.17 581.69,652.35 581.69,652.54 581.69,652.72 583.42,652.72 
				583.42,652.91 585.15,653.1 586.88,653.28 588.6,653.47 590.33,653.65 592.06,653.65 593.79,653.47 593.79,653.28 593.79,653.1 
				595.52,652.91 595.52,653.1 597.24,653.28 597.24,653.47 597.24,653.65 598.97,653.84 598.97,653.65 598.97,653.47 
				598.97,653.28 600.7,653.1 600.7,653.28 602.43,653.47 602.43,653.65 604.16,653.47 604.16,653.28 605.89,653.28 605.89,653.47 
				605.89,653.65 607.61,653.65 607.61,653.84 607.61,653.65 609.34,653.65 609.34,653.47 611.07,653.47 612.8,653.47 
				614.53,653.47 616.25,653.28 616.25,653.47 617.98,653.47 617.98,653.65 619.71,653.65 619.71,653.47 619.71,653.1 
				621.44,652.91 621.44,652.72 623.17,652.91 623.17,653.1 623.17,653.28 624.89,653.47 626.62,653.47 626.62,653.28 626.62,653.1 
				628.35,653.1 628.35,652.91 630.08,652.72 631.81,652.54 633.53,652.35 633.53,652.17 635.26,652.17 635.26,651.98 
				635.26,652.17 636.99,652.17 636.99,651.98 638.72,652.17 638.72,652.35 640.45,652.54 642.18,652.54 642.18,652.35 
				642.18,651.98 643.9,651.8 643.9,651.61 643.9,651.42 643.9,651.61 645.63,651.61 645.63,651.8 647.36,651.61 647.36,651.42 
				647.36,651.24 649.09,651.24 650.82,651.24 652.54,650.87 652.54,650.68 654.27,650.68 654.27,650.87 656,650.68 657.73,650.68 
				657.73,650.5 657.73,650.31 659.46,650.5 659.46,650.31 661.18,650.31 661.18,650.13 661.18,649.94 662.91,649.94 664.64,650.13 
				666.37,649.94 666.37,649.57 666.37,649.38 668.1,649.2 668.1,649.01 668.1,648.83 669.82,649.01 671.55,649.2 673.28,649.2 
				675.01,649.01 676.74,648.83 678.47,648.83 680.19,648.64 680.19,648.45 680.19,648.27 681.92,648.08 681.92,647.9 
				683.65,647.71 683.65,647.53 685.38,647.53 685.38,647.71 687.11,647.9 687.11,648.08 688.83,648.08 688.83,647.9 688.83,647.53 
				688.83,647.34 690.56,647.34 690.56,647.53 692.29,647.71 692.29,647.53 694.02,647.34 694.02,647.15 695.75,647.15 
				695.75,646.97 697.47,646.78 697.47,646.41 697.47,646.23 697.47,646.41 699.2,646.41 699.2,646.6 699.2,646.78 700.93,646.78 
				700.93,646.6 702.66,646.41 702.66,646.23 704.39,646.23 704.39,646.04 706.11,646.04 706.11,645.67 707.84,645.48 707.84,645.3 
				709.57,645.48 709.57,645.67 711.3,645.48 711.3,645.3 711.3,645.11 713.03,644.74 713.03,644.56 714.76,644.37 714.76,644.56 
				716.48,644.56 716.48,644.74 718.21,644.74 718.21,644.56 719.94,644.37 719.94,644.18 721.67,644 723.4,643.81 723.4,643.63 
				725.12,643.44 725.12,643.26 726.85,643.26 728.58,643.07 728.58,642.89 730.31,642.7 730.31,642.33 730.31,642.14 
				732.04,641.77 732.04,641.59 732.04,641.4 733.76,641.21 733.76,641.4 733.76,641.59 735.49,641.59 735.49,641.4 735.49,641.21 
				737.22,640.84 737.22,640.66 738.95,640.66 740.68,640.47 740.68,640.29 740.68,640.1 742.4,639.91 742.4,639.73 744.13,639.73 
				744.13,639.54 744.13,639.36 745.86,639.17 745.86,638.99 747.59,638.99 747.59,638.8 749.32,638.43 749.32,638.24 
				751.05,638.24 751.05,638.06 752.77,637.87 752.77,637.69 752.77,637.5 752.77,637.13 754.5,636.94 754.5,636.76 756.23,636.76 
				756.23,636.94 756.23,636.76 757.96,636.57 757.96,636.39 757.96,636.02 759.69,635.83 759.69,635.64 759.69,635.27 
				761.41,635.09 761.41,634.72 761.41,634.53 761.41,634.16 763.14,633.97 763.14,633.79 763.14,633.42 764.87,633.42 
				764.87,633.05 764.87,632.86 766.6,632.67 766.6,632.3 766.6,632.12 768.33,631.93 768.33,631.75 768.33,631.56 770.05,631.38 
				770.05,631.19 770.05,631 771.78,630.82 771.78,630.63 771.78,630.26 773.51,630.26 773.51,629.89 773.51,629.7 775.24,629.33 
				775.24,628.96 775.24,628.4 776.97,627.66 776.97,626.92 776.97,626.36 778.69,625.81 778.69,625.25 778.69,624.51 
				778.69,623.58 780.42,622.84 780.42,622.65 780.42,624.51 782.15,624.32 782.15,616.52 782.15,598.7 783.88,571.04 
				783.88,537.44 783.88,502.72 785.61,472.65 785.61,452.23 785.61,443.87 787.34,446.84 787.34,456.68 787.34,468.56 
				787.34,478.96 789.06,489.73 789.06,500.87 789.06,512.01 790.79,522.59 790.79,532.8 790.79,542.27 792.52,551.18 
				792.52,559.53 792.52,567.51 794.25,575.31 794.25,582.92 794.25,589.98 795.98,596.85 795.98,602.97 795.98,608.54 
				797.7,613.55 797.7,618.19 797.7,622.09 797.7,625.62 799.43,628.96 799.43,631.75 799.43,634.16 801.16,636.02 801.16,637.5 
				801.16,638.99 802.89,640.29 802.89,641.59 802.89,642.89 804.62,644 804.62,644.93 804.62,645.86 806.34,646.6 806.34,647.15 
				806.34,647.53 806.34,648.08 808.07,648.45 808.07,648.83 808.07,649.2 809.8,649.38 809.8,649.57 809.8,649.75 811.53,649.94 
				811.53,650.13 811.53,650.31 813.26,650.31 813.26,650.5 813.26,650.68 814.98,650.68 814.98,650.87 814.98,651.05 
				816.71,651.24 816.71,651.42 818.44,651.61 818.44,651.8 818.44,651.98 820.17,652.17 820.17,652.35 820.17,652.54 821.9,652.54 
				821.9,652.35 823.63,652.17 823.63,652.35 825.35,652.72 825.35,652.91 825.35,653.1 827.08,652.91 828.81,652.91 828.81,653.1 
				830.54,653.1 832.27,653.1 833.99,653.28 833.99,653.47 833.99,653.28 835.72,653.28 835.72,653.47 837.45,653.47 837.45,653.65 
				839.18,653.65 839.18,653.47 840.91,653.65 840.91,653.84 842.63,653.84 842.63,653.65 842.63,653.47 844.36,653.47 
				844.36,653.65 844.36,653.84 846.09,654.02 846.09,654.21 847.82,654.21 847.82,654.02 847.82,653.84 849.55,653.65 
				849.55,653.47 851.27,653.47 851.27,653.28 853,653.28 853,653.47 854.73,653.47 854.73,653.65 856.46,653.65 856.46,653.47 
				858.19,653.47 859.92,653.47 861.64,653.28 863.37,653.28 863.37,653.47 865.1,653.65 865.1,653.84 866.83,653.84 868.56,653.65 
				868.56,653.47 868.56,653.28 868.56,653.1 870.28,653.1 870.28,653.28 870.28,653.47 872.01,653.65 872.01,653.47 873.74,653.28 
				875.47,653.28 877.2,653.28 877.2,653.1 878.92,653.1 880.65,653.1 882.38,653.1 882.38,653.28 884.11,653.28 884.11,653.1 
				885.84,653.1 885.84,652.91 887.56,652.91 887.56,653.1 887.56,652.91 889.29,652.72 889.29,652.54 889.29,652.35 891.02,652.35 
				891.02,652.54 892.75,652.72 894.48,652.54 894.48,652.35 894.48,652.17 896.21,651.98 896.21,651.8 896.21,651.61 897.93,651.8 
				899.66,651.98 901.39,651.98 903.12,651.98 904.85,651.8 906.57,651.8 906.57,651.61 908.3,651.42 908.3,651.24 908.3,651.05 
				910.03,650.87 910.03,650.68 911.76,650.5 913.49,650.68 913.49,650.87 915.21,650.87 915.21,650.68 915.21,650.31 
				916.94,650.13 918.67,650.31 920.4,650.13 920.4,649.94 922.13,649.94 922.13,650.13 923.85,650.31 923.85,650.13 923.85,649.94 
				925.58,649.75 925.58,649.57 925.58,649.38 927.31,649.38 927.31,649.2 929.04,649.2 930.77,649.01 932.5,649.01 932.5,648.83 
				934.22,648.64 934.22,648.45 934.22,648.27 935.95,648.27 935.95,648.45 937.68,648.45 937.68,648.64 937.68,648.83 
				939.41,648.64 939.41,648.45 941.14,648.27 941.14,647.9 941.14,647.71 942.86,647.71 942.86,647.53 942.86,647.34 
				944.59,647.34 944.59,647.15 946.32,646.97 948.05,646.78 949.78,646.78 949.78,646.6 951.5,646.6 953.23,646.6 954.96,646.6 
				956.69,646.41 956.69,646.23 956.69,646.04 958.42,645.67 958.42,645.48 960.14,645.67 960.14,645.86 961.87,645.67 
				961.87,645.48 961.87,645.11 963.6,645.11 965.33,645.11 965.33,644.93 967.06,644.74 968.79,644.93 968.79,644.74 
				970.51,644.56 970.51,644.37 970.51,644.18 972.24,644.18 972.24,644 973.97,643.81 975.7,643.81 975.7,643.63 975.7,643.44 
				977.43,643.26 979.15,643.26 979.15,643.07 980.88,642.89 980.88,642.51 980.88,642.33 982.61,642.33 984.34,642.51 
				984.34,642.7 986.07,642.7 986.07,642.51 987.79,642.33 987.79,642.14 987.79,641.96 989.52,641.77 989.52,641.59 991.25,641.59 
				991.25,641.4 992.98,641.21 992.98,641.03 992.98,640.84 994.71,640.84 994.71,640.66 994.71,640.47 996.43,640.47 
				996.43,640.29 996.43,640.1 998.16,640.1 998.16,639.91 999.89,639.91 1001.62,639.91 1001.62,640.1 1001.62,639.91 
				1003.35,639.73 1003.35,639.54 1003.35,639.36 1003.35,638.99 1005.08,638.8 1006.8,638.8 1006.8,638.99 1006.8,638.8 
				1008.53,638.62 1008.53,638.24 1008.53,638.06 1010.26,637.87 1011.99,637.87 1011.99,638.06 1013.72,637.87 1013.72,638.06 
				1013.72,638.43 1015.44,638.62 1015.44,638.99 1015.44,639.17 1017.17,639.17 1017.17,639.36 1017.17,639.54 1018.9,639.73 
				1018.9,639.91 1020.63,640.1 1020.63,640.29 1020.63,640.47 1022.36,640.66 1022.36,640.84 1022.36,641.03 1024.08,641.21 
				1024.08,641.4 1024.08,641.59 1025.81,641.77 1025.81,642.14 1025.81,642.33 1027.54,642.33 1029.27,642.33 1029.27,642.51 
				1031,642.7 1031,642.89 1031,643.07 1031,643.26 1032.72,643.44 1032.72,643.81 1032.72,644 1034.45,644.18 1034.45,644.56 
				1034.45,644.74 1036.18,644.74 1036.18,644.93 1036.18,645.11 1037.91,645.3 1037.91,645.48 1037.91,645.67 1039.64,645.86 
				1039.64,646.04 1039.64,646.23 1039.64,646.41 1041.37,646.41 1041.37,646.6 1041.37,646.78 1043.09,646.78 1043.09,646.97 
				1044.82,646.97 1044.82,647.15 1046.55,647.53 1046.55,647.71 1046.55,648.08 1048.28,648.45 1048.28,648.83 1048.28,649.01 
				1050.01,649.01 1051.73,649.01 1051.73,649.2 1051.73,649.57 1053.46,649.75 1053.46,649.94 1053.46,650.13 1055.19,650.13 
				1055.19,650.31 1055.19,650.5 1056.92,650.68 1056.92,650.87 1056.92,651.05 1058.65,651.05 			"/>
		</g>
	</g>
	<g>
		<g>
			<line class="st0" x1="420.91" y1="589.94" x2="470.22" y2="589.94"/>
			<line class="st0" x1="420.91" y1="589.94" x2="420.91" y2="592.43"/>
			<line class="st0" x1="420.91" y1="589.94" x2="420.91" y2="587.44"/>
			<line class="st0" x1="470.22" y1="589.94" x2="470.22" y2="587.44"/>
			<line class="st0" x1="470.22" y1="589.94" x2="470.22" y2="592.43"/>
			<line class="st0" x1="420.91" y1="589.94" x2="420.91" y2="547.97"/>
			<line class="st0" x1="420.91" y1="589.94" x2="425.62" y2="589.94"/>
			<line class="st0" x1="420.91" y1="589.94" x2="416.2" y2="589.94"/>
			<line class="st0" x1="420.91" y1="547.97" x2="416.2" y2="547.97"/>
			<line class="st0" x1="420.91" y1="547.97" x2="425.62" y2="547.97"/>
		</g>
		<g id="_x3C_scale_x3E_">
			<text transform="matrix(1.0016 0 0 1 423.2656 565.3867)"><tspan x="0" y="0" class="st1 st2 st3">2</tspan><tspan x="6.6" y="0" class="st1 st2 st3">0</tspan></text>
			<text transform="matrix(1.0016 0 0 1 436.4834 565.3867)"><tspan x="0" y="0" class="st1 st2 st3"> </tspan><tspan x="3.31" y="0" class="st1 st2 st3">m</tspan><tspan x="13.41" y="0" class="st1 st2 st3">V</tspan></text>
		</g>
		<g>
			<text transform="matrix(1.0016 0 0 1 429.3184 606.3652)" class="st1 st2 st3">2</text>
			<text transform="matrix(1.0016 0 0 1 436.3164 606.3662)"><tspan x="0" y="0" class="st1 st2 st3"> </tspan><tspan x="3.31" y="0" class="st1 st2 st3">m</tspan><tspan x="13.41" y="0" class="st1 st2 st3">s</tspan></text>
		</g>
	</g>
</g>
<g id="图层_2">
</g>
</svg>
